ISO-10303-21;
HEADER;
/* Generated by software containing ST-Developer
 * from STEP Tools, Inc. (www.steptools.com) 
 */

FILE_DESCRIPTION(
/* description */ (''),
/* implementation_level */ '2;1');

FILE_NAME(
/* name */ 'case.step',
/* time_stamp */ '2026-08-28T00:01:29+02:00',
/* author */ (''),
/* organization */ (''),
/* preprocessor_version */ 'ST-DEVELOPER v20.1',
/* originating_system */ 'Autodesk Translation Framework v15.8.0.0',
/* authorisation */ '');

FILE_SCHEMA (('AUTOMOTIVE_DESIGN { 1 0 10303 214 3 1 1 }'));
ENDSEC;

DATA;
#10=MECHANICAL_DESIGN_GEOMETRIC_PRESENTATION_REPRESENTATION('',(#13),#2137);
#11=SHAPE_REPRESENTATION_RELATIONSHIP('SRR','None',#2144,#12);
#12=ADVANCED_BREP_SHAPE_REPRESENTATION('',(#14),#2136);
#13=STYLED_ITEM('',(#2153),#14);
#14=MANIFOLD_SOLID_BREP('Body2',#1339);
#15=CYLINDRICAL_SURFACE('',#1406,0.2);
#16=CYLINDRICAL_SURFACE('',#1409,0.2);
#17=CYLINDRICAL_SURFACE('',#1412,0.2);
#18=CYLINDRICAL_SURFACE('',#1417,0.2);
#19=CIRCLE('',#1394,0.2);
#20=CIRCLE('',#1395,0.2);
#21=CIRCLE('',#1397,0.2);
#22=CIRCLE('',#1402,0.2);
#23=CIRCLE('',#1404,0.2);
#24=CIRCLE('',#1405,0.2);
#25=CIRCLE('',#1407,0.2);
#26=CIRCLE('',#1410,0.2);
#27=CIRCLE('',#1413,0.2);
#28=CIRCLE('',#1416,0.2);
#29=FACE_BOUND('',#110,.T.);
#30=FACE_BOUND('',#111,.T.);
#31=FACE_BOUND('',#112,.T.);
#32=FACE_BOUND('',#113,.T.);
#33=FACE_BOUND('',#136,.T.);
#34=FACE_BOUND('',#137,.T.);
#35=FACE_BOUND('',#138,.T.);
#36=FACE_BOUND('',#139,.T.);
#37=FACE_BOUND('',#180,.T.);
#38=FACE_OUTER_BOUND('',#105,.T.);
#39=FACE_OUTER_BOUND('',#106,.T.);
#40=FACE_OUTER_BOUND('',#107,.T.);
#41=FACE_OUTER_BOUND('',#108,.T.);
#42=FACE_OUTER_BOUND('',#109,.T.);
#43=FACE_OUTER_BOUND('',#114,.T.);
#44=FACE_OUTER_BOUND('',#115,.T.);
#45=FACE_OUTER_BOUND('',#116,.T.);
#46=FACE_OUTER_BOUND('',#117,.T.);
#47=FACE_OUTER_BOUND('',#118,.T.);
#48=FACE_OUTER_BOUND('',#119,.T.);
#49=FACE_OUTER_BOUND('',#120,.T.);
#50=FACE_OUTER_BOUND('',#121,.T.);
#51=FACE_OUTER_BOUND('',#122,.T.);
#52=FACE_OUTER_BOUND('',#123,.T.);
#53=FACE_OUTER_BOUND('',#124,.T.);
#54=FACE_OUTER_BOUND('',#125,.T.);
#55=FACE_OUTER_BOUND('',#126,.T.);
#56=FACE_OUTER_BOUND('',#127,.T.);
#57=FACE_OUTER_BOUND('',#128,.T.);
#58=FACE_OUTER_BOUND('',#129,.T.);
#59=FACE_OUTER_BOUND('',#130,.T.);
#60=FACE_OUTER_BOUND('',#131,.T.);
#61=FACE_OUTER_BOUND('',#132,.T.);
#62=FACE_OUTER_BOUND('',#133,.T.);
#63=FACE_OUTER_BOUND('',#134,.T.);
#64=FACE_OUTER_BOUND('',#135,.T.);
#65=FACE_OUTER_BOUND('',#140,.T.);
#66=FACE_OUTER_BOUND('',#141,.T.);
#67=FACE_OUTER_BOUND('',#142,.T.);
#68=FACE_OUTER_BOUND('',#143,.T.);
#69=FACE_OUTER_BOUND('',#144,.T.);
#70=FACE_OUTER_BOUND('',#145,.T.);
#71=FACE_OUTER_BOUND('',#146,.T.);
#72=FACE_OUTER_BOUND('',#147,.T.);
#73=FACE_OUTER_BOUND('',#148,.T.);
#74=FACE_OUTER_BOUND('',#149,.T.);
#75=FACE_OUTER_BOUND('',#150,.T.);
#76=FACE_OUTER_BOUND('',#151,.T.);
#77=FACE_OUTER_BOUND('',#152,.T.);
#78=FACE_OUTER_BOUND('',#153,.T.);
#79=FACE_OUTER_BOUND('',#154,.T.);
#80=FACE_OUTER_BOUND('',#155,.T.);
#81=FACE_OUTER_BOUND('',#156,.T.);
#82=FACE_OUTER_BOUND('',#157,.T.);
#83=FACE_OUTER_BOUND('',#158,.T.);
#84=FACE_OUTER_BOUND('',#159,.T.);
#85=FACE_OUTER_BOUND('',#160,.T.);
#86=FACE_OUTER_BOUND('',#161,.T.);
#87=FACE_OUTER_BOUND('',#162,.T.);
#88=FACE_OUTER_BOUND('',#163,.T.);
#89=FACE_OUTER_BOUND('',#164,.T.);
#90=FACE_OUTER_BOUND('',#165,.T.);
#91=FACE_OUTER_BOUND('',#166,.T.);
#92=FACE_OUTER_BOUND('',#167,.T.);
#93=FACE_OUTER_BOUND('',#168,.T.);
#94=FACE_OUTER_BOUND('',#169,.T.);
#95=FACE_OUTER_BOUND('',#170,.T.);
#96=FACE_OUTER_BOUND('',#171,.T.);
#97=FACE_OUTER_BOUND('',#172,.T.);
#98=FACE_OUTER_BOUND('',#173,.T.);
#99=FACE_OUTER_BOUND('',#174,.T.);
#100=FACE_OUTER_BOUND('',#175,.T.);
#101=FACE_OUTER_BOUND('',#176,.T.);
#102=FACE_OUTER_BOUND('',#177,.T.);
#103=FACE_OUTER_BOUND('',#178,.T.);
#104=FACE_OUTER_BOUND('',#179,.T.);
#105=EDGE_LOOP('',(#837,#838,#839,#840));
#106=EDGE_LOOP('',(#841,#842,#843,#844,#845,#846,#847,#848));
#107=EDGE_LOOP('',(#849,#850,#851,#852,#853,#854,#855,#856,#857,#858));
#108=EDGE_LOOP('',(#859,#860,#861,#862));
#109=EDGE_LOOP('',(#863,#864,#865,#866));
#110=EDGE_LOOP('',(#867,#868,#869,#870));
#111=EDGE_LOOP('',(#871,#872,#873,#874));
#112=EDGE_LOOP('',(#875,#876,#877,#878));
#113=EDGE_LOOP('',(#879,#880,#881,#882));
#114=EDGE_LOOP('',(#883,#884,#885,#886,#887,#888,#889,#890));
#115=EDGE_LOOP('',(#891,#892,#893,#894));
#116=EDGE_LOOP('',(#895,#896,#897,#898,#899,#900,#901,#902));
#117=EDGE_LOOP('',(#903,#904,#905,#906));
#118=EDGE_LOOP('',(#907,#908,#909,#910));
#119=EDGE_LOOP('',(#911,#912,#913,#914,#915,#916,#917));
#120=EDGE_LOOP('',(#918,#919,#920,#921,#922,#923,#924,#925));
#121=EDGE_LOOP('',(#926,#927,#928,#929,#930,#931,#932,#933));
#122=EDGE_LOOP('',(#934,#935,#936,#937));
#123=EDGE_LOOP('',(#938,#939,#940,#941));
#124=EDGE_LOOP('',(#942,#943,#944,#945));
#125=EDGE_LOOP('',(#946,#947,#948,#949));
#126=EDGE_LOOP('',(#950,#951,#952,#953));
#127=EDGE_LOOP('',(#954,#955,#956,#957));
#128=EDGE_LOOP('',(#958,#959,#960,#961));
#129=EDGE_LOOP('',(#962,#963,#964,#965));
#130=EDGE_LOOP('',(#966,#967,#968,#969));
#131=EDGE_LOOP('',(#970,#971,#972,#973));
#132=EDGE_LOOP('',(#974,#975,#976,#977));
#133=EDGE_LOOP('',(#978,#979,#980,#981));
#134=EDGE_LOOP('',(#982,#983,#984,#985));
#135=EDGE_LOOP('',(#986,#987,#988,#989));
#136=EDGE_LOOP('',(#990,#991,#992,#993));
#137=EDGE_LOOP('',(#994,#995,#996,#997));
#138=EDGE_LOOP('',(#998,#999,#1000,#1001));
#139=EDGE_LOOP('',(#1002,#1003,#1004,#1005));
#140=EDGE_LOOP('',(#1006,#1007,#1008,#1009));
#141=EDGE_LOOP('',(#1010,#1011,#1012,#1013));
#142=EDGE_LOOP('',(#1014,#1015,#1016,#1017));
#143=EDGE_LOOP('',(#1018,#1019,#1020,#1021));
#144=EDGE_LOOP('',(#1022,#1023,#1024,#1025));
#145=EDGE_LOOP('',(#1026,#1027,#1028,#1029));
#146=EDGE_LOOP('',(#1030,#1031,#1032,#1033));
#147=EDGE_LOOP('',(#1034,#1035,#1036,#1037));
#148=EDGE_LOOP('',(#1038,#1039,#1040,#1041));
#149=EDGE_LOOP('',(#1042,#1043,#1044,#1045));
#150=EDGE_LOOP('',(#1046,#1047,#1048,#1049));
#151=EDGE_LOOP('',(#1050,#1051,#1052,#1053));
#152=EDGE_LOOP('',(#1054,#1055,#1056,#1057));
#153=EDGE_LOOP('',(#1058,#1059,#1060,#1061,#1062,#1063,#1064,#1065,#1066,
#1067,#1068,#1069,#1070,#1071));
#154=EDGE_LOOP('',(#1072,#1073,#1074,#1075));
#155=EDGE_LOOP('',(#1076,#1077,#1078,#1079,#1080));
#156=EDGE_LOOP('',(#1081,#1082,#1083,#1084,#1085));
#157=EDGE_LOOP('',(#1086,#1087,#1088,#1089,#1090,#1091));
#158=EDGE_LOOP('',(#1092,#1093,#1094,#1095));
#159=EDGE_LOOP('',(#1096,#1097,#1098,#1099,#1100,#1101));
#160=EDGE_LOOP('',(#1102,#1103,#1104,#1105));
#161=EDGE_LOOP('',(#1106,#1107,#1108,#1109));
#162=EDGE_LOOP('',(#1110,#1111,#1112,#1113,#1114));
#163=EDGE_LOOP('',(#1115,#1116,#1117,#1118,#1119));
#164=EDGE_LOOP('',(#1120,#1121,#1122,#1123,#1124));
#165=EDGE_LOOP('',(#1125,#1126,#1127,#1128,#1129));
#166=EDGE_LOOP('',(#1130,#1131,#1132,#1133,#1134,#1135));
#167=EDGE_LOOP('',(#1136,#1137,#1138,#1139));
#168=EDGE_LOOP('',(#1140,#1141,#1142,#1143));
#169=EDGE_LOOP('',(#1144,#1145,#1146,#1147));
#170=EDGE_LOOP('',(#1148,#1149,#1150,#1151));
#171=EDGE_LOOP('',(#1152,#1153,#1154,#1155));
#172=EDGE_LOOP('',(#1156,#1157,#1158,#1159));
#173=EDGE_LOOP('',(#1160,#1161,#1162,#1163));
#174=EDGE_LOOP('',(#1164,#1165,#1166,#1167));
#175=EDGE_LOOP('',(#1168,#1169,#1170,#1171));
#176=EDGE_LOOP('',(#1172,#1173,#1174,#1175,#1176,#1177));
#177=EDGE_LOOP('',(#1178,#1179,#1180,#1181,#1182,#1183,#1184,#1185,#1186,
#1187,#1188,#1189));
#178=EDGE_LOOP('',(#1190,#1191,#1192,#1193,#1194,#1195,#1196));
#179=EDGE_LOOP('',(#1197,#1198,#1199,#1200,#1201,#1202,#1203,#1204));
#180=EDGE_LOOP('',(#1205,#1206,#1207,#1208));
#181=LINE('',#1766,#357);
#182=LINE('',#1768,#358);
#183=LINE('',#1770,#359);
#184=LINE('',#1771,#360);
#185=LINE('',#1774,#361);
#186=LINE('',#1776,#362);
#187=LINE('',#1778,#363);
#188=LINE('',#1780,#364);
#189=LINE('',#1782,#365);
#190=LINE('',#1784,#366);
#191=LINE('',#1785,#367);
#192=LINE('',#1788,#368);
#193=LINE('',#1790,#369);
#194=LINE('',#1792,#370);
#195=LINE('',#1794,#371);
#196=LINE('',#1796,#372);
#197=LINE('',#1798,#373);
#198=LINE('',#1800,#374);
#199=LINE('',#1801,#375);
#200=LINE('',#1804,#376);
#201=LINE('',#1806,#377);
#202=LINE('',#1807,#378);
#203=LINE('',#1810,#379);
#204=LINE('',#1812,#380);
#205=LINE('',#1813,#381);
#206=LINE('',#1816,#382);
#207=LINE('',#1818,#383);
#208=LINE('',#1820,#384);
#209=LINE('',#1821,#385);
#210=LINE('',#1824,#386);
#211=LINE('',#1826,#387);
#212=LINE('',#1828,#388);
#213=LINE('',#1829,#389);
#214=LINE('',#1832,#390);
#215=LINE('',#1834,#391);
#216=LINE('',#1836,#392);
#217=LINE('',#1837,#393);
#218=LINE('',#1840,#394);
#219=LINE('',#1842,#395);
#220=LINE('',#1844,#396);
#221=LINE('',#1845,#397);
#222=LINE('',#1848,#398);
#223=LINE('',#1850,#399);
#224=LINE('',#1852,#400);
#225=LINE('',#1854,#401);
#226=LINE('',#1855,#402);
#227=LINE('',#1858,#403);
#228=LINE('',#1860,#404);
#229=LINE('',#1861,#405);
#230=LINE('',#1864,#406);
#231=LINE('',#1865,#407);
#232=LINE('',#1867,#408);
#233=LINE('',#1869,#409);
#234=LINE('',#1870,#410);
#235=LINE('',#1872,#411);
#236=LINE('',#1876,#412);
#237=LINE('',#1878,#413);
#238=LINE('',#1880,#414);
#239=LINE('',#1881,#415);
#240=LINE('',#1883,#416);
#241=LINE('',#1885,#417);
#242=LINE('',#1887,#418);
#243=LINE('',#1888,#419);
#244=LINE('',#1889,#420);
#245=LINE('',#1891,#421);
#246=LINE('',#1892,#422);
#247=LINE('',#1894,#423);
#248=LINE('',#1895,#424);
#249=LINE('',#1899,#425);
#250=LINE('',#1901,#426);
#251=LINE('',#1902,#427);
#252=LINE('',#1905,#428);
#253=LINE('',#1906,#429);
#254=LINE('',#1909,#430);
#255=LINE('',#1910,#431);
#256=LINE('',#1912,#432);
#257=LINE('',#1915,#433);
#258=LINE('',#1917,#434);
#259=LINE('',#1918,#435);
#260=LINE('',#1921,#436);
#261=LINE('',#1922,#437);
#262=LINE('',#1925,#438);
#263=LINE('',#1927,#439);
#264=LINE('',#1928,#440);
#265=LINE('',#1931,#441);
#266=LINE('',#1932,#442);
#267=LINE('',#1935,#443);
#268=LINE('',#1936,#444);
#269=LINE('',#1938,#445);
#270=LINE('',#1941,#446);
#271=LINE('',#1943,#447);
#272=LINE('',#1944,#448);
#273=LINE('',#1947,#449);
#274=LINE('',#1948,#450);
#275=LINE('',#1951,#451);
#276=LINE('',#1952,#452);
#277=LINE('',#1954,#453);
#278=LINE('',#1955,#454);
#279=LINE('',#1958,#455);
#280=LINE('',#1960,#456);
#281=LINE('',#1962,#457);
#282=LINE('',#1963,#458);
#283=LINE('',#1966,#459);
#284=LINE('',#1968,#460);
#285=LINE('',#1970,#461);
#286=LINE('',#1971,#462);
#287=LINE('',#1973,#463);
#288=LINE('',#1974,#464);
#289=LINE('',#1976,#465);
#290=LINE('',#1979,#466);
#291=LINE('',#1983,#467);
#292=LINE('',#1985,#468);
#293=LINE('',#1986,#469);
#294=LINE('',#1989,#470);
#295=LINE('',#1990,#471);
#296=LINE('',#1993,#472);
#297=LINE('',#1994,#473);
#298=LINE('',#1996,#474);
#299=LINE('',#1998,#475);
#300=LINE('',#1999,#476);
#301=LINE('',#2001,#477);
#302=LINE('',#2003,#478);
#303=LINE('',#2008,#479);
#304=LINE('',#2010,#480);
#305=LINE('',#2012,#481);
#306=LINE('',#2013,#482);
#307=LINE('',#2016,#483);
#308=LINE('',#2018,#484);
#309=LINE('',#2020,#485);
#310=LINE('',#2024,#486);
#311=LINE('',#2025,#487);
#312=LINE('',#2027,#488);
#313=LINE('',#2029,#489);
#314=LINE('',#2031,#490);
#315=LINE('',#2034,#491);
#316=LINE('',#2037,#492);
#317=LINE('',#2039,#493);
#318=LINE('',#2041,#494);
#319=LINE('',#2045,#495);
#320=LINE('',#2047,#496);
#321=LINE('',#2048,#497);
#322=LINE('',#2051,#498);
#323=LINE('',#2052,#499);
#324=LINE('',#2054,#500);
#325=LINE('',#2056,#501);
#326=LINE('',#2057,#502);
#327=LINE('',#2060,#503);
#328=LINE('',#2066,#504);
#329=LINE('',#2068,#505);
#330=LINE('',#2070,#506);
#331=LINE('',#2076,#507);
#332=LINE('',#2077,#508);
#333=LINE('',#2080,#509);
#334=LINE('',#2081,#510);
#335=LINE('',#2086,#511);
#336=LINE('',#2087,#512);
#337=LINE('',#2089,#513);
#338=LINE('',#2094,#514);
#339=LINE('',#2095,#515);
#340=LINE('',#2098,#516);
#341=LINE('',#2099,#517);
#342=LINE('',#2102,#518);
#343=LINE('',#2104,#519);
#344=LINE('',#2106,#520);
#345=LINE('',#2109,#521);
#346=LINE('',#2111,#522);
#347=LINE('',#2113,#523);
#348=LINE('',#2114,#524);
#349=LINE('',#2116,#525);
#350=LINE('',#2118,#526);
#351=LINE('',#2121,#527);
#352=LINE('',#2123,#528);
#353=LINE('',#2126,#529);
#354=LINE('',#2127,#530);
#355=LINE('',#2129,#531);
#356=LINE('',#2131,#532);
#357=VECTOR('',#1434,10.);
#358=VECTOR('',#1435,10.);
#359=VECTOR('',#1436,10.);
#360=VECTOR('',#1437,10.);
#361=VECTOR('',#1440,10.);
#362=VECTOR('',#1441,10.);
#363=VECTOR('',#1442,10.);
#364=VECTOR('',#1443,10.);
#365=VECTOR('',#1444,10.);
#366=VECTOR('',#1445,10.);
#367=VECTOR('',#1446,10.);
#368=VECTOR('',#1449,10.);
#369=VECTOR('',#1450,10.);
#370=VECTOR('',#1451,10.);
#371=VECTOR('',#1452,10.);
#372=VECTOR('',#1453,10.);
#373=VECTOR('',#1454,10.);
#374=VECTOR('',#1455,10.);
#375=VECTOR('',#1456,10.);
#376=VECTOR('',#1459,10.);
#377=VECTOR('',#1460,10.);
#378=VECTOR('',#1461,10.);
#379=VECTOR('',#1464,10.);
#380=VECTOR('',#1465,10.);
#381=VECTOR('',#1466,10.);
#382=VECTOR('',#1467,10.);
#383=VECTOR('',#1468,10.);
#384=VECTOR('',#1469,10.);
#385=VECTOR('',#1470,10.);
#386=VECTOR('',#1471,10.);
#387=VECTOR('',#1472,10.);
#388=VECTOR('',#1473,10.);
#389=VECTOR('',#1474,10.);
#390=VECTOR('',#1475,10.);
#391=VECTOR('',#1476,10.);
#392=VECTOR('',#1477,10.);
#393=VECTOR('',#1478,10.);
#394=VECTOR('',#1479,10.);
#395=VECTOR('',#1480,10.);
#396=VECTOR('',#1481,10.);
#397=VECTOR('',#1482,10.);
#398=VECTOR('',#1485,10.);
#399=VECTOR('',#1486,10.);
#400=VECTOR('',#1487,10.);
#401=VECTOR('',#1488,10.);
#402=VECTOR('',#1489,10.);
#403=VECTOR('',#1492,10.);
#404=VECTOR('',#1493,10.);
#405=VECTOR('',#1494,10.);
#406=VECTOR('',#1497,10.);
#407=VECTOR('',#1498,10.);
#408=VECTOR('',#1499,10.);
#409=VECTOR('',#1500,10.);
#410=VECTOR('',#1501,10.);
#411=VECTOR('',#1504,10.);
#412=VECTOR('',#1507,10.);
#413=VECTOR('',#1508,10.);
#414=VECTOR('',#1509,10.);
#415=VECTOR('',#1510,10.);
#416=VECTOR('',#1513,10.);
#417=VECTOR('',#1514,10.);
#418=VECTOR('',#1515,10.);
#419=VECTOR('',#1516,10.);
#420=VECTOR('',#1517,10.);
#421=VECTOR('',#1520,10.);
#422=VECTOR('',#1521,10.);
#423=VECTOR('',#1524,10.);
#424=VECTOR('',#1525,10.);
#425=VECTOR('',#1530,10.);
#426=VECTOR('',#1531,10.);
#427=VECTOR('',#1532,10.);
#428=VECTOR('',#1535,10.);
#429=VECTOR('',#1536,10.);
#430=VECTOR('',#1539,10.);
#431=VECTOR('',#1540,10.);
#432=VECTOR('',#1543,10.);
#433=VECTOR('',#1546,10.);
#434=VECTOR('',#1547,10.);
#435=VECTOR('',#1548,10.);
#436=VECTOR('',#1551,10.);
#437=VECTOR('',#1552,10.);
#438=VECTOR('',#1555,10.);
#439=VECTOR('',#1556,10.);
#440=VECTOR('',#1557,10.);
#441=VECTOR('',#1560,10.);
#442=VECTOR('',#1561,10.);
#443=VECTOR('',#1564,10.);
#444=VECTOR('',#1565,10.);
#445=VECTOR('',#1568,10.);
#446=VECTOR('',#1571,10.);
#447=VECTOR('',#1572,10.);
#448=VECTOR('',#1573,10.);
#449=VECTOR('',#1576,10.);
#450=VECTOR('',#1577,10.);
#451=VECTOR('',#1580,10.);
#452=VECTOR('',#1581,10.);
#453=VECTOR('',#1582,10.);
#454=VECTOR('',#1583,10.);
#455=VECTOR('',#1584,10.);
#456=VECTOR('',#1585,10.);
#457=VECTOR('',#1586,10.);
#458=VECTOR('',#1587,10.);
#459=VECTOR('',#1588,10.);
#460=VECTOR('',#1589,10.);
#461=VECTOR('',#1590,10.);
#462=VECTOR('',#1591,10.);
#463=VECTOR('',#1592,10.);
#464=VECTOR('',#1593,10.);
#465=VECTOR('',#1596,10.);
#466=VECTOR('',#1601,10.);
#467=VECTOR('',#1606,10.);
#468=VECTOR('',#1607,10.);
#469=VECTOR('',#1608,10.);
#470=VECTOR('',#1611,10.);
#471=VECTOR('',#1612,10.);
#472=VECTOR('',#1615,10.);
#473=VECTOR('',#1616,10.);
#474=VECTOR('',#1619,10.);
#475=VECTOR('',#1622,10.);
#476=VECTOR('',#1623,10.);
#477=VECTOR('',#1626,10.);
#478=VECTOR('',#1629,10.);
#479=VECTOR('',#1634,10.);
#480=VECTOR('',#1635,10.);
#481=VECTOR('',#1636,10.);
#482=VECTOR('',#1637,10.);
#483=VECTOR('',#1640,10.);
#484=VECTOR('',#1641,10.);
#485=VECTOR('',#1642,10.);
#486=VECTOR('',#1645,10.);
#487=VECTOR('',#1646,10.);
#488=VECTOR('',#1647,10.);
#489=VECTOR('',#1648,10.);
#490=VECTOR('',#1649,10.);
#491=VECTOR('',#1652,10.);
#492=VECTOR('',#1655,10.);
#493=VECTOR('',#1656,10.);
#494=VECTOR('',#1657,10.);
#495=VECTOR('',#1662,10.);
#496=VECTOR('',#1663,10.);
#497=VECTOR('',#1664,10.);
#498=VECTOR('',#1667,10.);
#499=VECTOR('',#1668,10.);
#500=VECTOR('',#1671,10.);
#501=VECTOR('',#1672,10.);
#502=VECTOR('',#1673,10.);
#503=VECTOR('',#1676,10.);
#504=VECTOR('',#1683,10.);
#505=VECTOR('',#1684,10.);
#506=VECTOR('',#1685,10.);
#507=VECTOR('',#1692,10.);
#508=VECTOR('',#1693,10.);
#509=VECTOR('',#1696,10.);
#510=VECTOR('',#1697,10.);
#511=VECTOR('',#1702,10.);
#512=VECTOR('',#1703,10.);
#513=VECTOR('',#1706,10.);
#514=VECTOR('',#1711,10.);
#515=VECTOR('',#1712,10.);
#516=VECTOR('',#1715,10.);
#517=VECTOR('',#1716,10.);
#518=VECTOR('',#1719,10.);
#519=VECTOR('',#1720,10.);
#520=VECTOR('',#1721,10.);
#521=VECTOR('',#1726,10.);
#522=VECTOR('',#1729,10.);
#523=VECTOR('',#1732,10.);
#524=VECTOR('',#1733,10.);
#525=VECTOR('',#1736,10.);
#526=VECTOR('',#1739,10.);
#527=VECTOR('',#1744,10.);
#528=VECTOR('',#1747,10.);
#529=VECTOR('',#1750,10.);
#530=VECTOR('',#1751,10.);
#531=VECTOR('',#1754,10.);
#532=VECTOR('',#1757,10.);
#533=VERTEX_POINT('',#1764);
#534=VERTEX_POINT('',#1765);
#535=VERTEX_POINT('',#1767);
#536=VERTEX_POINT('',#1769);
#537=VERTEX_POINT('',#1773);
#538=VERTEX_POINT('',#1775);
#539=VERTEX_POINT('',#1777);
#540=VERTEX_POINT('',#1779);
#541=VERTEX_POINT('',#1781);
#542=VERTEX_POINT('',#1783);
#543=VERTEX_POINT('',#1787);
#544=VERTEX_POINT('',#1789);
#545=VERTEX_POINT('',#1791);
#546=VERTEX_POINT('',#1793);
#547=VERTEX_POINT('',#1795);
#548=VERTEX_POINT('',#1797);
#549=VERTEX_POINT('',#1799);
#550=VERTEX_POINT('',#1803);
#551=VERTEX_POINT('',#1805);
#552=VERTEX_POINT('',#1809);
#553=VERTEX_POINT('',#1811);
#554=VERTEX_POINT('',#1814);
#555=VERTEX_POINT('',#1815);
#556=VERTEX_POINT('',#1817);
#557=VERTEX_POINT('',#1819);
#558=VERTEX_POINT('',#1822);
#559=VERTEX_POINT('',#1823);
#560=VERTEX_POINT('',#1825);
#561=VERTEX_POINT('',#1827);
#562=VERTEX_POINT('',#1830);
#563=VERTEX_POINT('',#1831);
#564=VERTEX_POINT('',#1833);
#565=VERTEX_POINT('',#1835);
#566=VERTEX_POINT('',#1838);
#567=VERTEX_POINT('',#1839);
#568=VERTEX_POINT('',#1841);
#569=VERTEX_POINT('',#1843);
#570=VERTEX_POINT('',#1847);
#571=VERTEX_POINT('',#1849);
#572=VERTEX_POINT('',#1851);
#573=VERTEX_POINT('',#1853);
#574=VERTEX_POINT('',#1857);
#575=VERTEX_POINT('',#1859);
#576=VERTEX_POINT('',#1863);
#577=VERTEX_POINT('',#1866);
#578=VERTEX_POINT('',#1868);
#579=VERTEX_POINT('',#1874);
#580=VERTEX_POINT('',#1875);
#581=VERTEX_POINT('',#1877);
#582=VERTEX_POINT('',#1879);
#583=VERTEX_POINT('',#1884);
#584=VERTEX_POINT('',#1886);
#585=VERTEX_POINT('',#1898);
#586=VERTEX_POINT('',#1900);
#587=VERTEX_POINT('',#1904);
#588=VERTEX_POINT('',#1908);
#589=VERTEX_POINT('',#1914);
#590=VERTEX_POINT('',#1916);
#591=VERTEX_POINT('',#1920);
#592=VERTEX_POINT('',#1924);
#593=VERTEX_POINT('',#1926);
#594=VERTEX_POINT('',#1930);
#595=VERTEX_POINT('',#1934);
#596=VERTEX_POINT('',#1940);
#597=VERTEX_POINT('',#1942);
#598=VERTEX_POINT('',#1946);
#599=VERTEX_POINT('',#1950);
#600=VERTEX_POINT('',#1953);
#601=VERTEX_POINT('',#1956);
#602=VERTEX_POINT('',#1957);
#603=VERTEX_POINT('',#1959);
#604=VERTEX_POINT('',#1961);
#605=VERTEX_POINT('',#1964);
#606=VERTEX_POINT('',#1965);
#607=VERTEX_POINT('',#1967);
#608=VERTEX_POINT('',#1969);
#609=VERTEX_POINT('',#1972);
#610=VERTEX_POINT('',#1982);
#611=VERTEX_POINT('',#1984);
#612=VERTEX_POINT('',#1988);
#613=VERTEX_POINT('',#1992);
#614=VERTEX_POINT('',#2006);
#615=VERTEX_POINT('',#2007);
#616=VERTEX_POINT('',#2009);
#617=VERTEX_POINT('',#2011);
#618=VERTEX_POINT('',#2015);
#619=VERTEX_POINT('',#2017);
#620=VERTEX_POINT('',#2019);
#621=VERTEX_POINT('',#2021);
#622=VERTEX_POINT('',#2023);
#623=VERTEX_POINT('',#2026);
#624=VERTEX_POINT('',#2028);
#625=VERTEX_POINT('',#2030);
#626=VERTEX_POINT('',#2032);
#627=VERTEX_POINT('',#2036);
#628=VERTEX_POINT('',#2038);
#629=VERTEX_POINT('',#2040);
#630=VERTEX_POINT('',#2044);
#631=VERTEX_POINT('',#2046);
#632=VERTEX_POINT('',#2050);
#633=VERTEX_POINT('',#2055);
#634=VERTEX_POINT('',#2059);
#635=VERTEX_POINT('',#2063);
#636=VERTEX_POINT('',#2065);
#637=VERTEX_POINT('',#2067);
#638=VERTEX_POINT('',#2069);
#639=VERTEX_POINT('',#2073);
#640=VERTEX_POINT('',#2074);
#641=VERTEX_POINT('',#2079);
#642=VERTEX_POINT('',#2083);
#643=VERTEX_POINT('',#2084);
#644=VERTEX_POINT('',#2091);
#645=VERTEX_POINT('',#2092);
#646=VERTEX_POINT('',#2097);
#647=VERTEX_POINT('',#2101);
#648=VERTEX_POINT('',#2103);
#649=VERTEX_POINT('',#2105);
#650=VERTEX_POINT('',#2125);
#651=EDGE_CURVE('',#533,#534,#181,.T.);
#652=EDGE_CURVE('',#534,#535,#182,.T.);
#653=EDGE_CURVE('',#535,#536,#183,.T.);
#654=EDGE_CURVE('',#536,#533,#184,.T.);
#655=EDGE_CURVE('',#534,#537,#185,.T.);
#656=EDGE_CURVE('',#537,#538,#186,.T.);
#657=EDGE_CURVE('',#539,#538,#187,.T.);
#658=EDGE_CURVE('',#540,#539,#188,.T.);
#659=EDGE_CURVE('',#540,#541,#189,.T.);
#660=EDGE_CURVE('',#542,#541,#190,.T.);
#661=EDGE_CURVE('',#535,#542,#191,.T.);
#662=EDGE_CURVE('',#543,#533,#192,.T.);
#663=EDGE_CURVE('',#544,#543,#193,.T.);
#664=EDGE_CURVE('',#544,#545,#194,.T.);
#665=EDGE_CURVE('',#545,#546,#195,.T.);
#666=EDGE_CURVE('',#546,#547,#196,.T.);
#667=EDGE_CURVE('',#547,#548,#197,.T.);
#668=EDGE_CURVE('',#548,#549,#198,.T.);
#669=EDGE_CURVE('',#549,#537,#199,.T.);
#670=EDGE_CURVE('',#541,#550,#200,.T.);
#671=EDGE_CURVE('',#550,#551,#201,.T.);
#672=EDGE_CURVE('',#551,#542,#202,.T.);
#673=EDGE_CURVE('',#550,#552,#203,.T.);
#674=EDGE_CURVE('',#553,#552,#204,.T.);
#675=EDGE_CURVE('',#553,#551,#205,.T.);
#676=EDGE_CURVE('',#554,#555,#206,.T.);
#677=EDGE_CURVE('',#556,#554,#207,.T.);
#678=EDGE_CURVE('',#557,#556,#208,.T.);
#679=EDGE_CURVE('',#555,#557,#209,.T.);
#680=EDGE_CURVE('',#558,#559,#210,.T.);
#681=EDGE_CURVE('',#560,#558,#211,.T.);
#682=EDGE_CURVE('',#561,#560,#212,.T.);
#683=EDGE_CURVE('',#559,#561,#213,.T.);
#684=EDGE_CURVE('',#562,#563,#214,.T.);
#685=EDGE_CURVE('',#563,#564,#215,.T.);
#686=EDGE_CURVE('',#564,#565,#216,.T.);
#687=EDGE_CURVE('',#565,#562,#217,.T.);
#688=EDGE_CURVE('',#566,#567,#218,.T.);
#689=EDGE_CURVE('',#568,#566,#219,.T.);
#690=EDGE_CURVE('',#569,#568,#220,.T.);
#691=EDGE_CURVE('',#567,#569,#221,.T.);
#692=EDGE_CURVE('',#540,#570,#222,.T.);
#693=EDGE_CURVE('',#570,#571,#223,.T.);
#694=EDGE_CURVE('',#571,#572,#224,.T.);
#695=EDGE_CURVE('',#572,#573,#225,.T.);
#696=EDGE_CURVE('',#552,#573,#226,.T.);
#697=EDGE_CURVE('',#543,#574,#227,.T.);
#698=EDGE_CURVE('',#574,#575,#228,.T.);
#699=EDGE_CURVE('',#575,#544,#229,.T.);
#700=EDGE_CURVE('',#576,#575,#230,.T.);
#701=EDGE_CURVE('',#573,#576,#231,.T.);
#702=EDGE_CURVE('',#572,#577,#232,.T.);
#703=EDGE_CURVE('',#578,#577,#233,.T.);
#704=EDGE_CURVE('',#545,#578,#234,.T.);
#705=EDGE_CURVE('',#576,#553,#235,.T.);
#706=EDGE_CURVE('',#579,#580,#236,.T.);
#707=EDGE_CURVE('',#579,#581,#237,.T.);
#708=EDGE_CURVE('',#582,#581,#238,.T.);
#709=EDGE_CURVE('',#580,#582,#239,.T.);
#710=EDGE_CURVE('',#571,#581,#240,.T.);
#711=EDGE_CURVE('',#571,#583,#241,.T.);
#712=EDGE_CURVE('',#583,#584,#242,.T.);
#713=EDGE_CURVE('',#584,#547,#243,.T.);
#714=EDGE_CURVE('',#546,#582,#244,.T.);
#715=EDGE_CURVE('',#549,#580,#245,.T.);
#716=EDGE_CURVE('',#538,#578,#246,.T.);
#717=EDGE_CURVE('',#577,#539,#247,.T.);
#718=EDGE_CURVE('',#570,#579,#248,.T.);
#719=EDGE_CURVE('',#555,#585,#249,.T.);
#720=EDGE_CURVE('',#585,#586,#250,.T.);
#721=EDGE_CURVE('',#554,#586,#251,.T.);
#722=EDGE_CURVE('',#557,#587,#252,.T.);
#723=EDGE_CURVE('',#587,#585,#253,.T.);
#724=EDGE_CURVE('',#556,#588,#254,.T.);
#725=EDGE_CURVE('',#588,#587,#255,.T.);
#726=EDGE_CURVE('',#586,#588,#256,.T.);
#727=EDGE_CURVE('',#589,#586,#257,.T.);
#728=EDGE_CURVE('',#589,#590,#258,.T.);
#729=EDGE_CURVE('',#590,#588,#259,.T.);
#730=EDGE_CURVE('',#591,#585,#260,.T.);
#731=EDGE_CURVE('',#589,#591,#261,.T.);
#732=EDGE_CURVE('',#567,#592,#262,.T.);
#733=EDGE_CURVE('',#592,#593,#263,.T.);
#734=EDGE_CURVE('',#566,#593,#264,.T.);
#735=EDGE_CURVE('',#569,#594,#265,.T.);
#736=EDGE_CURVE('',#594,#592,#266,.T.);
#737=EDGE_CURVE('',#568,#595,#267,.T.);
#738=EDGE_CURVE('',#595,#594,#268,.T.);
#739=EDGE_CURVE('',#593,#595,#269,.T.);
#740=EDGE_CURVE('',#596,#593,#270,.T.);
#741=EDGE_CURVE('',#597,#596,#271,.T.);
#742=EDGE_CURVE('',#597,#595,#272,.T.);
#743=EDGE_CURVE('',#598,#592,#273,.T.);
#744=EDGE_CURVE('',#598,#596,#274,.T.);
#745=EDGE_CURVE('',#599,#570,#275,.T.);
#746=EDGE_CURVE('',#583,#599,#276,.T.);
#747=EDGE_CURVE('',#598,#600,#277,.T.);
#748=EDGE_CURVE('',#597,#600,#278,.T.);
#749=EDGE_CURVE('',#601,#602,#279,.T.);
#750=EDGE_CURVE('',#603,#601,#280,.T.);
#751=EDGE_CURVE('',#604,#603,#281,.T.);
#752=EDGE_CURVE('',#602,#604,#282,.T.);
#753=EDGE_CURVE('',#605,#606,#283,.T.);
#754=EDGE_CURVE('',#605,#607,#284,.T.);
#755=EDGE_CURVE('',#608,#607,#285,.T.);
#756=EDGE_CURVE('',#608,#606,#286,.T.);
#757=EDGE_CURVE('',#609,#590,#287,.T.);
#758=EDGE_CURVE('',#609,#591,#288,.T.);
#759=EDGE_CURVE('',#609,#587,#289,.T.);
#760=EDGE_CURVE('',#600,#594,#290,.T.);
#761=EDGE_CURVE('',#559,#610,#291,.T.);
#762=EDGE_CURVE('',#610,#611,#292,.T.);
#763=EDGE_CURVE('',#558,#611,#293,.T.);
#764=EDGE_CURVE('',#561,#612,#294,.T.);
#765=EDGE_CURVE('',#612,#610,#295,.T.);
#766=EDGE_CURVE('',#560,#613,#296,.T.);
#767=EDGE_CURVE('',#613,#612,#297,.T.);
#768=EDGE_CURVE('',#611,#613,#298,.T.);
#769=EDGE_CURVE('',#606,#611,#299,.T.);
#770=EDGE_CURVE('',#608,#613,#300,.T.);
#771=EDGE_CURVE('',#605,#610,#301,.T.);
#772=EDGE_CURVE('',#607,#612,#302,.T.);
#773=EDGE_CURVE('',#614,#615,#303,.T.);
#774=EDGE_CURVE('',#616,#614,#304,.T.);
#775=EDGE_CURVE('',#617,#616,#305,.T.);
#776=EDGE_CURVE('',#615,#617,#306,.T.);
#777=EDGE_CURVE('',#618,#617,#307,.T.);
#778=EDGE_CURVE('',#616,#619,#308,.T.);
#779=EDGE_CURVE('',#619,#620,#309,.T.);
#780=EDGE_CURVE('',#621,#620,#19,.F.);
#781=EDGE_CURVE('',#621,#622,#310,.T.);
#782=EDGE_CURVE('',#584,#622,#311,.F.);
#783=EDGE_CURVE('',#623,#599,#312,.T.);
#784=EDGE_CURVE('',#624,#623,#313,.F.);
#785=EDGE_CURVE('',#624,#625,#314,.T.);
#786=EDGE_CURVE('',#626,#625,#20,.F.);
#787=EDGE_CURVE('',#626,#618,#315,.T.);
#788=EDGE_CURVE('',#627,#619,#316,.T.);
#789=EDGE_CURVE('',#628,#619,#317,.T.);
#790=EDGE_CURVE('',#629,#628,#318,.T.);
#791=EDGE_CURVE('',#627,#629,#21,.F.);
#792=EDGE_CURVE('',#615,#630,#319,.T.);
#793=EDGE_CURVE('',#618,#631,#320,.T.);
#794=EDGE_CURVE('',#630,#631,#321,.T.);
#795=EDGE_CURVE('',#632,#614,#322,.T.);
#796=EDGE_CURVE('',#632,#628,#323,.T.);
#797=EDGE_CURVE('',#630,#632,#324,.T.);
#798=EDGE_CURVE('',#631,#633,#325,.T.);
#799=EDGE_CURVE('',#629,#633,#326,.T.);
#800=EDGE_CURVE('',#618,#634,#327,.T.);
#801=EDGE_CURVE('',#633,#634,#22,.F.);
#802=EDGE_CURVE('',#635,#633,#23,.F.);
#803=EDGE_CURVE('',#635,#636,#328,.T.);
#804=EDGE_CURVE('',#637,#636,#329,.F.);
#805=EDGE_CURVE('',#637,#638,#330,.T.);
#806=EDGE_CURVE('',#629,#638,#24,.F.);
#807=EDGE_CURVE('',#639,#640,#25,.T.);
#808=EDGE_CURVE('',#640,#626,#331,.T.);
#809=EDGE_CURVE('',#625,#639,#332,.T.);
#810=EDGE_CURVE('',#641,#624,#333,.T.);
#811=EDGE_CURVE('',#641,#639,#334,.T.);
#812=EDGE_CURVE('',#642,#643,#26,.T.);
#813=EDGE_CURVE('',#643,#635,#335,.T.);
#814=EDGE_CURVE('',#634,#642,#336,.T.);
#815=EDGE_CURVE('',#640,#642,#337,.T.);
#816=EDGE_CURVE('',#644,#645,#27,.T.);
#817=EDGE_CURVE('',#645,#627,#338,.T.);
#818=EDGE_CURVE('',#638,#644,#339,.T.);
#819=EDGE_CURVE('',#645,#646,#340,.T.);
#820=EDGE_CURVE('',#620,#646,#341,.T.);
#821=EDGE_CURVE('',#647,#644,#342,.T.);
#822=EDGE_CURVE('',#648,#647,#343,.T.);
#823=EDGE_CURVE('',#648,#649,#344,.T.);
#824=EDGE_CURVE('',#646,#649,#28,.T.);
#825=EDGE_CURVE('',#649,#621,#345,.T.);
#826=EDGE_CURVE('',#622,#648,#346,.T.);
#827=EDGE_CURVE('',#564,#604,#347,.T.);
#828=EDGE_CURVE('',#602,#563,#348,.T.);
#829=EDGE_CURVE('',#565,#603,#349,.T.);
#830=EDGE_CURVE('',#562,#601,#350,.T.);
#831=EDGE_CURVE('',#574,#536,#351,.T.);
#832=EDGE_CURVE('',#647,#637,#352,.T.);
#833=EDGE_CURVE('',#650,#643,#353,.T.);
#834=EDGE_CURVE('',#636,#650,#354,.T.);
#835=EDGE_CURVE('',#650,#641,#355,.T.);
#836=EDGE_CURVE('',#548,#623,#356,.T.);
#837=ORIENTED_EDGE('',*,*,#651,.T.);
#838=ORIENTED_EDGE('',*,*,#652,.T.);
#839=ORIENTED_EDGE('',*,*,#653,.T.);
#840=ORIENTED_EDGE('',*,*,#654,.T.);
#841=ORIENTED_EDGE('',*,*,#652,.F.);
#842=ORIENTED_EDGE('',*,*,#655,.T.);
#843=ORIENTED_EDGE('',*,*,#656,.T.);
#844=ORIENTED_EDGE('',*,*,#657,.F.);
#845=ORIENTED_EDGE('',*,*,#658,.F.);
#846=ORIENTED_EDGE('',*,*,#659,.T.);
#847=ORIENTED_EDGE('',*,*,#660,.F.);
#848=ORIENTED_EDGE('',*,*,#661,.F.);
#849=ORIENTED_EDGE('',*,*,#651,.F.);
#850=ORIENTED_EDGE('',*,*,#662,.F.);
#851=ORIENTED_EDGE('',*,*,#663,.F.);
#852=ORIENTED_EDGE('',*,*,#664,.T.);
#853=ORIENTED_EDGE('',*,*,#665,.T.);
#854=ORIENTED_EDGE('',*,*,#666,.T.);
#855=ORIENTED_EDGE('',*,*,#667,.T.);
#856=ORIENTED_EDGE('',*,*,#668,.T.);
#857=ORIENTED_EDGE('',*,*,#669,.T.);
#858=ORIENTED_EDGE('',*,*,#655,.F.);
#859=ORIENTED_EDGE('',*,*,#670,.T.);
#860=ORIENTED_EDGE('',*,*,#671,.T.);
#861=ORIENTED_EDGE('',*,*,#672,.T.);
#862=ORIENTED_EDGE('',*,*,#660,.T.);
#863=ORIENTED_EDGE('',*,*,#671,.F.);
#864=ORIENTED_EDGE('',*,*,#673,.T.);
#865=ORIENTED_EDGE('',*,*,#674,.F.);
#866=ORIENTED_EDGE('',*,*,#675,.T.);
#867=ORIENTED_EDGE('',*,*,#676,.F.);
#868=ORIENTED_EDGE('',*,*,#677,.F.);
#869=ORIENTED_EDGE('',*,*,#678,.F.);
#870=ORIENTED_EDGE('',*,*,#679,.F.);
#871=ORIENTED_EDGE('',*,*,#680,.F.);
#872=ORIENTED_EDGE('',*,*,#681,.F.);
#873=ORIENTED_EDGE('',*,*,#682,.F.);
#874=ORIENTED_EDGE('',*,*,#683,.F.);
#875=ORIENTED_EDGE('',*,*,#684,.T.);
#876=ORIENTED_EDGE('',*,*,#685,.T.);
#877=ORIENTED_EDGE('',*,*,#686,.T.);
#878=ORIENTED_EDGE('',*,*,#687,.T.);
#879=ORIENTED_EDGE('',*,*,#688,.F.);
#880=ORIENTED_EDGE('',*,*,#689,.F.);
#881=ORIENTED_EDGE('',*,*,#690,.F.);
#882=ORIENTED_EDGE('',*,*,#691,.F.);
#883=ORIENTED_EDGE('',*,*,#670,.F.);
#884=ORIENTED_EDGE('',*,*,#659,.F.);
#885=ORIENTED_EDGE('',*,*,#692,.T.);
#886=ORIENTED_EDGE('',*,*,#693,.T.);
#887=ORIENTED_EDGE('',*,*,#694,.T.);
#888=ORIENTED_EDGE('',*,*,#695,.T.);
#889=ORIENTED_EDGE('',*,*,#696,.F.);
#890=ORIENTED_EDGE('',*,*,#673,.F.);
#891=ORIENTED_EDGE('',*,*,#663,.T.);
#892=ORIENTED_EDGE('',*,*,#697,.T.);
#893=ORIENTED_EDGE('',*,*,#698,.T.);
#894=ORIENTED_EDGE('',*,*,#699,.T.);
#895=ORIENTED_EDGE('',*,*,#699,.F.);
#896=ORIENTED_EDGE('',*,*,#700,.F.);
#897=ORIENTED_EDGE('',*,*,#701,.F.);
#898=ORIENTED_EDGE('',*,*,#695,.F.);
#899=ORIENTED_EDGE('',*,*,#702,.T.);
#900=ORIENTED_EDGE('',*,*,#703,.F.);
#901=ORIENTED_EDGE('',*,*,#704,.F.);
#902=ORIENTED_EDGE('',*,*,#664,.F.);
#903=ORIENTED_EDGE('',*,*,#705,.T.);
#904=ORIENTED_EDGE('',*,*,#674,.T.);
#905=ORIENTED_EDGE('',*,*,#696,.T.);
#906=ORIENTED_EDGE('',*,*,#701,.T.);
#907=ORIENTED_EDGE('',*,*,#706,.F.);
#908=ORIENTED_EDGE('',*,*,#707,.T.);
#909=ORIENTED_EDGE('',*,*,#708,.F.);
#910=ORIENTED_EDGE('',*,*,#709,.F.);
#911=ORIENTED_EDGE('',*,*,#708,.T.);
#912=ORIENTED_EDGE('',*,*,#710,.F.);
#913=ORIENTED_EDGE('',*,*,#711,.T.);
#914=ORIENTED_EDGE('',*,*,#712,.T.);
#915=ORIENTED_EDGE('',*,*,#713,.T.);
#916=ORIENTED_EDGE('',*,*,#666,.F.);
#917=ORIENTED_EDGE('',*,*,#714,.T.);
#918=ORIENTED_EDGE('',*,*,#669,.F.);
#919=ORIENTED_EDGE('',*,*,#715,.T.);
#920=ORIENTED_EDGE('',*,*,#709,.T.);
#921=ORIENTED_EDGE('',*,*,#714,.F.);
#922=ORIENTED_EDGE('',*,*,#665,.F.);
#923=ORIENTED_EDGE('',*,*,#704,.T.);
#924=ORIENTED_EDGE('',*,*,#716,.F.);
#925=ORIENTED_EDGE('',*,*,#656,.F.);
#926=ORIENTED_EDGE('',*,*,#692,.F.);
#927=ORIENTED_EDGE('',*,*,#658,.T.);
#928=ORIENTED_EDGE('',*,*,#717,.F.);
#929=ORIENTED_EDGE('',*,*,#702,.F.);
#930=ORIENTED_EDGE('',*,*,#694,.F.);
#931=ORIENTED_EDGE('',*,*,#710,.T.);
#932=ORIENTED_EDGE('',*,*,#707,.F.);
#933=ORIENTED_EDGE('',*,*,#718,.F.);
#934=ORIENTED_EDGE('',*,*,#717,.T.);
#935=ORIENTED_EDGE('',*,*,#657,.T.);
#936=ORIENTED_EDGE('',*,*,#716,.T.);
#937=ORIENTED_EDGE('',*,*,#703,.T.);
#938=ORIENTED_EDGE('',*,*,#676,.T.);
#939=ORIENTED_EDGE('',*,*,#719,.T.);
#940=ORIENTED_EDGE('',*,*,#720,.T.);
#941=ORIENTED_EDGE('',*,*,#721,.F.);
#942=ORIENTED_EDGE('',*,*,#679,.T.);
#943=ORIENTED_EDGE('',*,*,#722,.T.);
#944=ORIENTED_EDGE('',*,*,#723,.T.);
#945=ORIENTED_EDGE('',*,*,#719,.F.);
#946=ORIENTED_EDGE('',*,*,#678,.T.);
#947=ORIENTED_EDGE('',*,*,#724,.T.);
#948=ORIENTED_EDGE('',*,*,#725,.T.);
#949=ORIENTED_EDGE('',*,*,#722,.F.);
#950=ORIENTED_EDGE('',*,*,#726,.T.);
#951=ORIENTED_EDGE('',*,*,#724,.F.);
#952=ORIENTED_EDGE('',*,*,#677,.T.);
#953=ORIENTED_EDGE('',*,*,#721,.T.);
#954=ORIENTED_EDGE('',*,*,#726,.F.);
#955=ORIENTED_EDGE('',*,*,#727,.F.);
#956=ORIENTED_EDGE('',*,*,#728,.T.);
#957=ORIENTED_EDGE('',*,*,#729,.T.);
#958=ORIENTED_EDGE('',*,*,#720,.F.);
#959=ORIENTED_EDGE('',*,*,#730,.F.);
#960=ORIENTED_EDGE('',*,*,#731,.F.);
#961=ORIENTED_EDGE('',*,*,#727,.T.);
#962=ORIENTED_EDGE('',*,*,#688,.T.);
#963=ORIENTED_EDGE('',*,*,#732,.T.);
#964=ORIENTED_EDGE('',*,*,#733,.T.);
#965=ORIENTED_EDGE('',*,*,#734,.F.);
#966=ORIENTED_EDGE('',*,*,#691,.T.);
#967=ORIENTED_EDGE('',*,*,#735,.T.);
#968=ORIENTED_EDGE('',*,*,#736,.T.);
#969=ORIENTED_EDGE('',*,*,#732,.F.);
#970=ORIENTED_EDGE('',*,*,#690,.T.);
#971=ORIENTED_EDGE('',*,*,#737,.T.);
#972=ORIENTED_EDGE('',*,*,#738,.T.);
#973=ORIENTED_EDGE('',*,*,#735,.F.);
#974=ORIENTED_EDGE('',*,*,#739,.T.);
#975=ORIENTED_EDGE('',*,*,#737,.F.);
#976=ORIENTED_EDGE('',*,*,#689,.T.);
#977=ORIENTED_EDGE('',*,*,#734,.T.);
#978=ORIENTED_EDGE('',*,*,#739,.F.);
#979=ORIENTED_EDGE('',*,*,#740,.F.);
#980=ORIENTED_EDGE('',*,*,#741,.F.);
#981=ORIENTED_EDGE('',*,*,#742,.T.);
#982=ORIENTED_EDGE('',*,*,#733,.F.);
#983=ORIENTED_EDGE('',*,*,#743,.F.);
#984=ORIENTED_EDGE('',*,*,#744,.T.);
#985=ORIENTED_EDGE('',*,*,#740,.T.);
#986=ORIENTED_EDGE('',*,*,#711,.F.);
#987=ORIENTED_EDGE('',*,*,#693,.F.);
#988=ORIENTED_EDGE('',*,*,#745,.F.);
#989=ORIENTED_EDGE('',*,*,#746,.F.);
#990=ORIENTED_EDGE('',*,*,#744,.F.);
#991=ORIENTED_EDGE('',*,*,#747,.T.);
#992=ORIENTED_EDGE('',*,*,#748,.F.);
#993=ORIENTED_EDGE('',*,*,#741,.T.);
#994=ORIENTED_EDGE('',*,*,#749,.F.);
#995=ORIENTED_EDGE('',*,*,#750,.F.);
#996=ORIENTED_EDGE('',*,*,#751,.F.);
#997=ORIENTED_EDGE('',*,*,#752,.F.);
#998=ORIENTED_EDGE('',*,*,#753,.F.);
#999=ORIENTED_EDGE('',*,*,#754,.T.);
#1000=ORIENTED_EDGE('',*,*,#755,.F.);
#1001=ORIENTED_EDGE('',*,*,#756,.T.);
#1002=ORIENTED_EDGE('',*,*,#757,.T.);
#1003=ORIENTED_EDGE('',*,*,#728,.F.);
#1004=ORIENTED_EDGE('',*,*,#731,.T.);
#1005=ORIENTED_EDGE('',*,*,#758,.F.);
#1006=ORIENTED_EDGE('',*,*,#723,.F.);
#1007=ORIENTED_EDGE('',*,*,#759,.F.);
#1008=ORIENTED_EDGE('',*,*,#758,.T.);
#1009=ORIENTED_EDGE('',*,*,#730,.T.);
#1010=ORIENTED_EDGE('',*,*,#725,.F.);
#1011=ORIENTED_EDGE('',*,*,#729,.F.);
#1012=ORIENTED_EDGE('',*,*,#757,.F.);
#1013=ORIENTED_EDGE('',*,*,#759,.T.);
#1014=ORIENTED_EDGE('',*,*,#738,.F.);
#1015=ORIENTED_EDGE('',*,*,#742,.F.);
#1016=ORIENTED_EDGE('',*,*,#748,.T.);
#1017=ORIENTED_EDGE('',*,*,#760,.T.);
#1018=ORIENTED_EDGE('',*,*,#736,.F.);
#1019=ORIENTED_EDGE('',*,*,#760,.F.);
#1020=ORIENTED_EDGE('',*,*,#747,.F.);
#1021=ORIENTED_EDGE('',*,*,#743,.T.);
#1022=ORIENTED_EDGE('',*,*,#680,.T.);
#1023=ORIENTED_EDGE('',*,*,#761,.T.);
#1024=ORIENTED_EDGE('',*,*,#762,.T.);
#1025=ORIENTED_EDGE('',*,*,#763,.F.);
#1026=ORIENTED_EDGE('',*,*,#683,.T.);
#1027=ORIENTED_EDGE('',*,*,#764,.T.);
#1028=ORIENTED_EDGE('',*,*,#765,.T.);
#1029=ORIENTED_EDGE('',*,*,#761,.F.);
#1030=ORIENTED_EDGE('',*,*,#682,.T.);
#1031=ORIENTED_EDGE('',*,*,#766,.T.);
#1032=ORIENTED_EDGE('',*,*,#767,.T.);
#1033=ORIENTED_EDGE('',*,*,#764,.F.);
#1034=ORIENTED_EDGE('',*,*,#768,.T.);
#1035=ORIENTED_EDGE('',*,*,#766,.F.);
#1036=ORIENTED_EDGE('',*,*,#681,.T.);
#1037=ORIENTED_EDGE('',*,*,#763,.T.);
#1038=ORIENTED_EDGE('',*,*,#768,.F.);
#1039=ORIENTED_EDGE('',*,*,#769,.F.);
#1040=ORIENTED_EDGE('',*,*,#756,.F.);
#1041=ORIENTED_EDGE('',*,*,#770,.T.);
#1042=ORIENTED_EDGE('',*,*,#762,.F.);
#1043=ORIENTED_EDGE('',*,*,#771,.F.);
#1044=ORIENTED_EDGE('',*,*,#753,.T.);
#1045=ORIENTED_EDGE('',*,*,#769,.T.);
#1046=ORIENTED_EDGE('',*,*,#765,.F.);
#1047=ORIENTED_EDGE('',*,*,#772,.F.);
#1048=ORIENTED_EDGE('',*,*,#754,.F.);
#1049=ORIENTED_EDGE('',*,*,#771,.T.);
#1050=ORIENTED_EDGE('',*,*,#767,.F.);
#1051=ORIENTED_EDGE('',*,*,#770,.F.);
#1052=ORIENTED_EDGE('',*,*,#755,.T.);
#1053=ORIENTED_EDGE('',*,*,#772,.T.);
#1054=ORIENTED_EDGE('',*,*,#773,.F.);
#1055=ORIENTED_EDGE('',*,*,#774,.F.);
#1056=ORIENTED_EDGE('',*,*,#775,.F.);
#1057=ORIENTED_EDGE('',*,*,#776,.F.);
#1058=ORIENTED_EDGE('',*,*,#777,.T.);
#1059=ORIENTED_EDGE('',*,*,#775,.T.);
#1060=ORIENTED_EDGE('',*,*,#778,.T.);
#1061=ORIENTED_EDGE('',*,*,#779,.T.);
#1062=ORIENTED_EDGE('',*,*,#780,.F.);
#1063=ORIENTED_EDGE('',*,*,#781,.T.);
#1064=ORIENTED_EDGE('',*,*,#782,.F.);
#1065=ORIENTED_EDGE('',*,*,#712,.F.);
#1066=ORIENTED_EDGE('',*,*,#746,.T.);
#1067=ORIENTED_EDGE('',*,*,#783,.F.);
#1068=ORIENTED_EDGE('',*,*,#784,.F.);
#1069=ORIENTED_EDGE('',*,*,#785,.T.);
#1070=ORIENTED_EDGE('',*,*,#786,.F.);
#1071=ORIENTED_EDGE('',*,*,#787,.T.);
#1072=ORIENTED_EDGE('',*,*,#788,.T.);
#1073=ORIENTED_EDGE('',*,*,#789,.F.);
#1074=ORIENTED_EDGE('',*,*,#790,.F.);
#1075=ORIENTED_EDGE('',*,*,#791,.F.);
#1076=ORIENTED_EDGE('',*,*,#792,.F.);
#1077=ORIENTED_EDGE('',*,*,#776,.T.);
#1078=ORIENTED_EDGE('',*,*,#777,.F.);
#1079=ORIENTED_EDGE('',*,*,#793,.T.);
#1080=ORIENTED_EDGE('',*,*,#794,.F.);
#1081=ORIENTED_EDGE('',*,*,#795,.F.);
#1082=ORIENTED_EDGE('',*,*,#796,.T.);
#1083=ORIENTED_EDGE('',*,*,#789,.T.);
#1084=ORIENTED_EDGE('',*,*,#778,.F.);
#1085=ORIENTED_EDGE('',*,*,#774,.T.);
#1086=ORIENTED_EDGE('',*,*,#797,.F.);
#1087=ORIENTED_EDGE('',*,*,#794,.T.);
#1088=ORIENTED_EDGE('',*,*,#798,.T.);
#1089=ORIENTED_EDGE('',*,*,#799,.F.);
#1090=ORIENTED_EDGE('',*,*,#790,.T.);
#1091=ORIENTED_EDGE('',*,*,#796,.F.);
#1092=ORIENTED_EDGE('',*,*,#800,.T.);
#1093=ORIENTED_EDGE('',*,*,#801,.F.);
#1094=ORIENTED_EDGE('',*,*,#798,.F.);
#1095=ORIENTED_EDGE('',*,*,#793,.F.);
#1096=ORIENTED_EDGE('',*,*,#799,.T.);
#1097=ORIENTED_EDGE('',*,*,#802,.F.);
#1098=ORIENTED_EDGE('',*,*,#803,.T.);
#1099=ORIENTED_EDGE('',*,*,#804,.F.);
#1100=ORIENTED_EDGE('',*,*,#805,.T.);
#1101=ORIENTED_EDGE('',*,*,#806,.F.);
#1102=ORIENTED_EDGE('',*,*,#807,.T.);
#1103=ORIENTED_EDGE('',*,*,#808,.T.);
#1104=ORIENTED_EDGE('',*,*,#786,.T.);
#1105=ORIENTED_EDGE('',*,*,#809,.T.);
#1106=ORIENTED_EDGE('',*,*,#809,.F.);
#1107=ORIENTED_EDGE('',*,*,#785,.F.);
#1108=ORIENTED_EDGE('',*,*,#810,.F.);
#1109=ORIENTED_EDGE('',*,*,#811,.T.);
#1110=ORIENTED_EDGE('',*,*,#812,.T.);
#1111=ORIENTED_EDGE('',*,*,#813,.T.);
#1112=ORIENTED_EDGE('',*,*,#802,.T.);
#1113=ORIENTED_EDGE('',*,*,#801,.T.);
#1114=ORIENTED_EDGE('',*,*,#814,.T.);
#1115=ORIENTED_EDGE('',*,*,#808,.F.);
#1116=ORIENTED_EDGE('',*,*,#815,.T.);
#1117=ORIENTED_EDGE('',*,*,#814,.F.);
#1118=ORIENTED_EDGE('',*,*,#800,.F.);
#1119=ORIENTED_EDGE('',*,*,#787,.F.);
#1120=ORIENTED_EDGE('',*,*,#816,.T.);
#1121=ORIENTED_EDGE('',*,*,#817,.T.);
#1122=ORIENTED_EDGE('',*,*,#791,.T.);
#1123=ORIENTED_EDGE('',*,*,#806,.T.);
#1124=ORIENTED_EDGE('',*,*,#818,.T.);
#1125=ORIENTED_EDGE('',*,*,#817,.F.);
#1126=ORIENTED_EDGE('',*,*,#819,.T.);
#1127=ORIENTED_EDGE('',*,*,#820,.F.);
#1128=ORIENTED_EDGE('',*,*,#779,.F.);
#1129=ORIENTED_EDGE('',*,*,#788,.F.);
#1130=ORIENTED_EDGE('',*,*,#816,.F.);
#1131=ORIENTED_EDGE('',*,*,#821,.F.);
#1132=ORIENTED_EDGE('',*,*,#822,.F.);
#1133=ORIENTED_EDGE('',*,*,#823,.T.);
#1134=ORIENTED_EDGE('',*,*,#824,.F.);
#1135=ORIENTED_EDGE('',*,*,#819,.F.);
#1136=ORIENTED_EDGE('',*,*,#824,.T.);
#1137=ORIENTED_EDGE('',*,*,#825,.T.);
#1138=ORIENTED_EDGE('',*,*,#780,.T.);
#1139=ORIENTED_EDGE('',*,*,#820,.T.);
#1140=ORIENTED_EDGE('',*,*,#825,.F.);
#1141=ORIENTED_EDGE('',*,*,#823,.F.);
#1142=ORIENTED_EDGE('',*,*,#826,.F.);
#1143=ORIENTED_EDGE('',*,*,#781,.F.);
#1144=ORIENTED_EDGE('',*,*,#752,.T.);
#1145=ORIENTED_EDGE('',*,*,#827,.F.);
#1146=ORIENTED_EDGE('',*,*,#685,.F.);
#1147=ORIENTED_EDGE('',*,*,#828,.F.);
#1148=ORIENTED_EDGE('',*,*,#751,.T.);
#1149=ORIENTED_EDGE('',*,*,#829,.F.);
#1150=ORIENTED_EDGE('',*,*,#686,.F.);
#1151=ORIENTED_EDGE('',*,*,#827,.T.);
#1152=ORIENTED_EDGE('',*,*,#750,.T.);
#1153=ORIENTED_EDGE('',*,*,#830,.F.);
#1154=ORIENTED_EDGE('',*,*,#687,.F.);
#1155=ORIENTED_EDGE('',*,*,#829,.T.);
#1156=ORIENTED_EDGE('',*,*,#749,.T.);
#1157=ORIENTED_EDGE('',*,*,#828,.T.);
#1158=ORIENTED_EDGE('',*,*,#684,.F.);
#1159=ORIENTED_EDGE('',*,*,#830,.T.);
#1160=ORIENTED_EDGE('',*,*,#654,.F.);
#1161=ORIENTED_EDGE('',*,*,#831,.F.);
#1162=ORIENTED_EDGE('',*,*,#697,.F.);
#1163=ORIENTED_EDGE('',*,*,#662,.T.);
#1164=ORIENTED_EDGE('',*,*,#818,.F.);
#1165=ORIENTED_EDGE('',*,*,#805,.F.);
#1166=ORIENTED_EDGE('',*,*,#832,.F.);
#1167=ORIENTED_EDGE('',*,*,#821,.T.);
#1168=ORIENTED_EDGE('',*,*,#813,.F.);
#1169=ORIENTED_EDGE('',*,*,#833,.F.);
#1170=ORIENTED_EDGE('',*,*,#834,.F.);
#1171=ORIENTED_EDGE('',*,*,#803,.F.);
#1172=ORIENTED_EDGE('',*,*,#807,.F.);
#1173=ORIENTED_EDGE('',*,*,#811,.F.);
#1174=ORIENTED_EDGE('',*,*,#835,.F.);
#1175=ORIENTED_EDGE('',*,*,#833,.T.);
#1176=ORIENTED_EDGE('',*,*,#812,.F.);
#1177=ORIENTED_EDGE('',*,*,#815,.F.);
#1178=ORIENTED_EDGE('',*,*,#832,.T.);
#1179=ORIENTED_EDGE('',*,*,#804,.T.);
#1180=ORIENTED_EDGE('',*,*,#834,.T.);
#1181=ORIENTED_EDGE('',*,*,#835,.T.);
#1182=ORIENTED_EDGE('',*,*,#810,.T.);
#1183=ORIENTED_EDGE('',*,*,#784,.T.);
#1184=ORIENTED_EDGE('',*,*,#836,.F.);
#1185=ORIENTED_EDGE('',*,*,#667,.F.);
#1186=ORIENTED_EDGE('',*,*,#713,.F.);
#1187=ORIENTED_EDGE('',*,*,#782,.T.);
#1188=ORIENTED_EDGE('',*,*,#826,.T.);
#1189=ORIENTED_EDGE('',*,*,#822,.T.);
#1190=ORIENTED_EDGE('',*,*,#706,.T.);
#1191=ORIENTED_EDGE('',*,*,#715,.F.);
#1192=ORIENTED_EDGE('',*,*,#668,.F.);
#1193=ORIENTED_EDGE('',*,*,#836,.T.);
#1194=ORIENTED_EDGE('',*,*,#783,.T.);
#1195=ORIENTED_EDGE('',*,*,#745,.T.);
#1196=ORIENTED_EDGE('',*,*,#718,.T.);
#1197=ORIENTED_EDGE('',*,*,#653,.F.);
#1198=ORIENTED_EDGE('',*,*,#661,.T.);
#1199=ORIENTED_EDGE('',*,*,#672,.F.);
#1200=ORIENTED_EDGE('',*,*,#675,.F.);
#1201=ORIENTED_EDGE('',*,*,#705,.F.);
#1202=ORIENTED_EDGE('',*,*,#700,.T.);
#1203=ORIENTED_EDGE('',*,*,#698,.F.);
#1204=ORIENTED_EDGE('',*,*,#831,.T.);
#1205=ORIENTED_EDGE('',*,*,#792,.T.);
#1206=ORIENTED_EDGE('',*,*,#797,.T.);
#1207=ORIENTED_EDGE('',*,*,#795,.T.);
#1208=ORIENTED_EDGE('',*,*,#773,.T.);
#1209=PLANE('',#1353);
#1210=PLANE('',#1354);
#1211=PLANE('',#1355);
#1212=PLANE('',#1356);
#1213=PLANE('',#1357);
#1214=PLANE('',#1358);
#1215=PLANE('',#1359);
#1216=PLANE('',#1360);
#1217=PLANE('',#1361);
#1218=PLANE('',#1362);
#1219=PLANE('',#1363);
#1220=PLANE('',#1364);
#1221=PLANE('',#1365);
#1222=PLANE('',#1366);
#1223=PLANE('',#1367);
#1224=PLANE('',#1368);
#1225=PLANE('',#1369);
#1226=PLANE('',#1370);
#1227=PLANE('',#1371);
#1228=PLANE('',#1372);
#1229=PLANE('',#1373);
#1230=PLANE('',#1374);
#1231=PLANE('',#1375);
#1232=PLANE('',#1376);
#1233=PLANE('',#1377);
#1234=PLANE('',#1378);
#1235=PLANE('',#1379);
#1236=PLANE('',#1380);
#1237=PLANE('',#1381);
#1238=PLANE('',#1382);
#1239=PLANE('',#1383);
#1240=PLANE('',#1384);
#1241=PLANE('',#1385);
#1242=PLANE('',#1386);
#1243=PLANE('',#1387);
#1244=PLANE('',#1388);
#1245=PLANE('',#1389);
#1246=PLANE('',#1390);
#1247=PLANE('',#1391);
#1248=PLANE('',#1392);
#1249=PLANE('',#1393);
#1250=PLANE('',#1396);
#1251=PLANE('',#1398);
#1252=PLANE('',#1399);
#1253=PLANE('',#1400);
#1254=PLANE('',#1401);
#1255=PLANE('',#1403);
#1256=PLANE('',#1408);
#1257=PLANE('',#1411);
#1258=PLANE('',#1414);
#1259=PLANE('',#1415);
#1260=PLANE('',#1418);
#1261=PLANE('',#1419);
#1262=PLANE('',#1420);
#1263=PLANE('',#1421);
#1264=PLANE('',#1422);
#1265=PLANE('',#1423);
#1266=PLANE('',#1424);
#1267=PLANE('',#1425);
#1268=PLANE('',#1426);
#1269=PLANE('',#1427);
#1270=PLANE('',#1428);
#1271=PLANE('',#1429);
#1272=ADVANCED_FACE('',(#38),#1209,.T.);
#1273=ADVANCED_FACE('',(#39),#1210,.T.);
#1274=ADVANCED_FACE('',(#40),#1211,.T.);
#1275=ADVANCED_FACE('',(#41),#1212,.T.);
#1276=ADVANCED_FACE('',(#42,#29,#30,#31,#32),#1213,.T.);
#1277=ADVANCED_FACE('',(#43),#1214,.T.);
#1278=ADVANCED_FACE('',(#44),#1215,.T.);
#1279=ADVANCED_FACE('',(#45),#1216,.T.);
#1280=ADVANCED_FACE('',(#46),#1217,.T.);
#1281=ADVANCED_FACE('',(#47),#1218,.T.);
#1282=ADVANCED_FACE('',(#48),#1219,.F.);
#1283=ADVANCED_FACE('',(#49),#1220,.T.);
#1284=ADVANCED_FACE('',(#50),#1221,.T.);
#1285=ADVANCED_FACE('',(#51),#1222,.T.);
#1286=ADVANCED_FACE('',(#52),#1223,.T.);
#1287=ADVANCED_FACE('',(#53),#1224,.T.);
#1288=ADVANCED_FACE('',(#54),#1225,.T.);
#1289=ADVANCED_FACE('',(#55),#1226,.T.);
#1290=ADVANCED_FACE('',(#56),#1227,.T.);
#1291=ADVANCED_FACE('',(#57),#1228,.T.);
#1292=ADVANCED_FACE('',(#58),#1229,.T.);
#1293=ADVANCED_FACE('',(#59),#1230,.T.);
#1294=ADVANCED_FACE('',(#60),#1231,.T.);
#1295=ADVANCED_FACE('',(#61),#1232,.T.);
#1296=ADVANCED_FACE('',(#62),#1233,.T.);
#1297=ADVANCED_FACE('',(#63),#1234,.T.);
#1298=ADVANCED_FACE('',(#64,#33,#34,#35,#36),#1235,.F.);
#1299=ADVANCED_FACE('',(#65),#1236,.T.);
#1300=ADVANCED_FACE('',(#66),#1237,.T.);
#1301=ADVANCED_FACE('',(#67),#1238,.T.);
#1302=ADVANCED_FACE('',(#68),#1239,.T.);
#1303=ADVANCED_FACE('',(#69),#1240,.T.);
#1304=ADVANCED_FACE('',(#70),#1241,.T.);
#1305=ADVANCED_FACE('',(#71),#1242,.T.);
#1306=ADVANCED_FACE('',(#72),#1243,.T.);
#1307=ADVANCED_FACE('',(#73),#1244,.T.);
#1308=ADVANCED_FACE('',(#74),#1245,.T.);
#1309=ADVANCED_FACE('',(#75),#1246,.T.);
#1310=ADVANCED_FACE('',(#76),#1247,.T.);
#1311=ADVANCED_FACE('',(#77),#1248,.F.);
#1312=ADVANCED_FACE('',(#78),#1249,.F.);
#1313=ADVANCED_FACE('',(#79),#1250,.F.);
#1314=ADVANCED_FACE('',(#80),#1251,.F.);
#1315=ADVANCED_FACE('',(#81),#1252,.F.);
#1316=ADVANCED_FACE('',(#82),#1253,.F.);
#1317=ADVANCED_FACE('',(#83),#1254,.F.);
#1318=ADVANCED_FACE('',(#84),#1255,.F.);
#1319=ADVANCED_FACE('',(#85),#15,.T.);
#1320=ADVANCED_FACE('',(#86),#1256,.T.);
#1321=ADVANCED_FACE('',(#87),#16,.T.);
#1322=ADVANCED_FACE('',(#88),#1257,.T.);
#1323=ADVANCED_FACE('',(#89),#17,.T.);
#1324=ADVANCED_FACE('',(#90),#1258,.T.);
#1325=ADVANCED_FACE('',(#91),#1259,.T.);
#1326=ADVANCED_FACE('',(#92),#18,.T.);
#1327=ADVANCED_FACE('',(#93),#1260,.T.);
#1328=ADVANCED_FACE('',(#94),#1261,.F.);
#1329=ADVANCED_FACE('',(#95),#1262,.F.);
#1330=ADVANCED_FACE('',(#96),#1263,.F.);
#1331=ADVANCED_FACE('',(#97),#1264,.F.);
#1332=ADVANCED_FACE('',(#98),#1265,.T.);
#1333=ADVANCED_FACE('',(#99),#1266,.T.);
#1334=ADVANCED_FACE('',(#100),#1267,.T.);
#1335=ADVANCED_FACE('',(#101),#1268,.T.);
#1336=ADVANCED_FACE('',(#102),#1269,.T.);
#1337=ADVANCED_FACE('',(#103),#1270,.F.);
#1338=ADVANCED_FACE('',(#104,#37),#1271,.T.);
#1339=CLOSED_SHELL('',(#1272,#1273,#1274,#1275,#1276,#1277,#1278,#1279,
#1280,#1281,#1282,#1283,#1284,#1285,#1286,#1287,#1288,#1289,#1290,#1291,
#1292,#1293,#1294,#1295,#1296,#1297,#1298,#1299,#1300,#1301,#1302,#1303,
#1304,#1305,#1306,#1307,#1308,#1309,#1310,#1311,#1312,#1313,#1314,#1315,
#1316,#1317,#1318,#1319,#1320,#1321,#1322,#1323,#1324,#1325,#1326,#1327,
#1328,#1329,#1330,#1331,#1332,#1333,#1334,#1335,#1336,#1337,#1338));
#1340=DERIVED_UNIT_ELEMENT(#1342,1.);
#1341=DERIVED_UNIT_ELEMENT(#2139,-3.);
#1342=(
MASS_UNIT()
NAMED_UNIT(*)
SI_UNIT(.KILO.,.GRAM.)
);
#1343=DERIVED_UNIT((#1340,#1341));
#1344=MEASURE_REPRESENTATION_ITEM('density measure',
POSITIVE_RATIO_MEASURE(7850.),#1343);
#1345=PROPERTY_DEFINITION_REPRESENTATION(#1350,#1347);
#1346=PROPERTY_DEFINITION_REPRESENTATION(#1351,#1348);
#1347=REPRESENTATION('material name',(#1349),#2136);
#1348=REPRESENTATION('density',(#1344),#2136);
#1349=DESCRIPTIVE_REPRESENTATION_ITEM('Steel','Steel');
#1350=PROPERTY_DEFINITION('material property','material name',#2146);
#1351=PROPERTY_DEFINITION('material property','density of part',#2146);
#1352=AXIS2_PLACEMENT_3D('',#1762,#1430,#1431);
#1353=AXIS2_PLACEMENT_3D('',#1763,#1432,#1433);
#1354=AXIS2_PLACEMENT_3D('',#1772,#1438,#1439);
#1355=AXIS2_PLACEMENT_3D('',#1786,#1447,#1448);
#1356=AXIS2_PLACEMENT_3D('',#1802,#1457,#1458);
#1357=AXIS2_PLACEMENT_3D('',#1808,#1462,#1463);
#1358=AXIS2_PLACEMENT_3D('',#1846,#1483,#1484);
#1359=AXIS2_PLACEMENT_3D('',#1856,#1490,#1491);
#1360=AXIS2_PLACEMENT_3D('',#1862,#1495,#1496);
#1361=AXIS2_PLACEMENT_3D('',#1871,#1502,#1503);
#1362=AXIS2_PLACEMENT_3D('',#1873,#1505,#1506);
#1363=AXIS2_PLACEMENT_3D('',#1882,#1511,#1512);
#1364=AXIS2_PLACEMENT_3D('',#1890,#1518,#1519);
#1365=AXIS2_PLACEMENT_3D('',#1893,#1522,#1523);
#1366=AXIS2_PLACEMENT_3D('',#1896,#1526,#1527);
#1367=AXIS2_PLACEMENT_3D('',#1897,#1528,#1529);
#1368=AXIS2_PLACEMENT_3D('',#1903,#1533,#1534);
#1369=AXIS2_PLACEMENT_3D('',#1907,#1537,#1538);
#1370=AXIS2_PLACEMENT_3D('',#1911,#1541,#1542);
#1371=AXIS2_PLACEMENT_3D('',#1913,#1544,#1545);
#1372=AXIS2_PLACEMENT_3D('',#1919,#1549,#1550);
#1373=AXIS2_PLACEMENT_3D('',#1923,#1553,#1554);
#1374=AXIS2_PLACEMENT_3D('',#1929,#1558,#1559);
#1375=AXIS2_PLACEMENT_3D('',#1933,#1562,#1563);
#1376=AXIS2_PLACEMENT_3D('',#1937,#1566,#1567);
#1377=AXIS2_PLACEMENT_3D('',#1939,#1569,#1570);
#1378=AXIS2_PLACEMENT_3D('',#1945,#1574,#1575);
#1379=AXIS2_PLACEMENT_3D('',#1949,#1578,#1579);
#1380=AXIS2_PLACEMENT_3D('',#1975,#1594,#1595);
#1381=AXIS2_PLACEMENT_3D('',#1977,#1597,#1598);
#1382=AXIS2_PLACEMENT_3D('',#1978,#1599,#1600);
#1383=AXIS2_PLACEMENT_3D('',#1980,#1602,#1603);
#1384=AXIS2_PLACEMENT_3D('',#1981,#1604,#1605);
#1385=AXIS2_PLACEMENT_3D('',#1987,#1609,#1610);
#1386=AXIS2_PLACEMENT_3D('',#1991,#1613,#1614);
#1387=AXIS2_PLACEMENT_3D('',#1995,#1617,#1618);
#1388=AXIS2_PLACEMENT_3D('',#1997,#1620,#1621);
#1389=AXIS2_PLACEMENT_3D('',#2000,#1624,#1625);
#1390=AXIS2_PLACEMENT_3D('',#2002,#1627,#1628);
#1391=AXIS2_PLACEMENT_3D('',#2004,#1630,#1631);
#1392=AXIS2_PLACEMENT_3D('',#2005,#1632,#1633);
#1393=AXIS2_PLACEMENT_3D('',#2014,#1638,#1639);
#1394=AXIS2_PLACEMENT_3D('',#2022,#1643,#1644);
#1395=AXIS2_PLACEMENT_3D('',#2033,#1650,#1651);
#1396=AXIS2_PLACEMENT_3D('',#2035,#1653,#1654);
#1397=AXIS2_PLACEMENT_3D('',#2042,#1658,#1659);
#1398=AXIS2_PLACEMENT_3D('',#2043,#1660,#1661);
#1399=AXIS2_PLACEMENT_3D('',#2049,#1665,#1666);
#1400=AXIS2_PLACEMENT_3D('',#2053,#1669,#1670);
#1401=AXIS2_PLACEMENT_3D('',#2058,#1674,#1675);
#1402=AXIS2_PLACEMENT_3D('',#2061,#1677,#1678);
#1403=AXIS2_PLACEMENT_3D('',#2062,#1679,#1680);
#1404=AXIS2_PLACEMENT_3D('',#2064,#1681,#1682);
#1405=AXIS2_PLACEMENT_3D('',#2071,#1686,#1687);
#1406=AXIS2_PLACEMENT_3D('',#2072,#1688,#1689);
#1407=AXIS2_PLACEMENT_3D('',#2075,#1690,#1691);
#1408=AXIS2_PLACEMENT_3D('',#2078,#1694,#1695);
#1409=AXIS2_PLACEMENT_3D('',#2082,#1698,#1699);
#1410=AXIS2_PLACEMENT_3D('',#2085,#1700,#1701);
#1411=AXIS2_PLACEMENT_3D('',#2088,#1704,#1705);
#1412=AXIS2_PLACEMENT_3D('',#2090,#1707,#1708);
#1413=AXIS2_PLACEMENT_3D('',#2093,#1709,#1710);
#1414=AXIS2_PLACEMENT_3D('',#2096,#1713,#1714);
#1415=AXIS2_PLACEMENT_3D('',#2100,#1717,#1718);
#1416=AXIS2_PLACEMENT_3D('',#2107,#1722,#1723);
#1417=AXIS2_PLACEMENT_3D('',#2108,#1724,#1725);
#1418=AXIS2_PLACEMENT_3D('',#2110,#1727,#1728);
#1419=AXIS2_PLACEMENT_3D('',#2112,#1730,#1731);
#1420=AXIS2_PLACEMENT_3D('',#2115,#1734,#1735);
#1421=AXIS2_PLACEMENT_3D('',#2117,#1737,#1738);
#1422=AXIS2_PLACEMENT_3D('',#2119,#1740,#1741);
#1423=AXIS2_PLACEMENT_3D('',#2120,#1742,#1743);
#1424=AXIS2_PLACEMENT_3D('',#2122,#1745,#1746);
#1425=AXIS2_PLACEMENT_3D('',#2124,#1748,#1749);
#1426=AXIS2_PLACEMENT_3D('',#2128,#1752,#1753);
#1427=AXIS2_PLACEMENT_3D('',#2130,#1755,#1756);
#1428=AXIS2_PLACEMENT_3D('',#2132,#1758,#1759);
#1429=AXIS2_PLACEMENT_3D('',#2133,#1760,#1761);
#1430=DIRECTION('axis',(0.,0.,1.));
#1431=DIRECTION('refdir',(1.,0.,0.));
#1432=DIRECTION('center_axis',(0.,0.707106781186541,-0.707106781186554));
#1433=DIRECTION('ref_axis',(-1.,0.,0.));
#1434=DIRECTION('',(-5.88784672006421E-16,0.707106781186554,0.707106781186541));
#1435=DIRECTION('',(1.,0.,0.));
#1436=DIRECTION('',(1.57009245868379E-15,-0.707106781186554,-0.707106781186541));
#1437=DIRECTION('',(-1.,0.,0.));
#1438=DIRECTION('center_axis',(0.,1.,0.));
#1439=DIRECTION('ref_axis',(0.,0.,1.));
#1440=DIRECTION('',(0.,0.,1.));
#1441=DIRECTION('',(-1.,0.,0.));
#1442=DIRECTION('',(0.,0.,-1.));
#1443=DIRECTION('',(-1.,0.,0.));
#1444=DIRECTION('',(0.,0.,1.));
#1445=DIRECTION('',(-1.,0.,0.));
#1446=DIRECTION('',(0.,0.,1.));
#1447=DIRECTION('center_axis',(-1.,-8.32667268468867E-16,0.));
#1448=DIRECTION('ref_axis',(0.,0.,1.));
#1449=DIRECTION('',(-7.28583859910262E-16,1.,0.));
#1450=DIRECTION('',(-5.8878467200641E-16,0.707106781186541,-0.707106781186554));
#1451=DIRECTION('',(0.,0.,1.));
#1452=DIRECTION('',(-8.32667268468867E-16,1.,0.));
#1453=DIRECTION('',(0.,0.,-1.));
#1454=DIRECTION('',(-8.32667268468867E-16,1.,0.));
#1455=DIRECTION('',(0.,0.,1.));
#1456=DIRECTION('',(-8.32667268468867E-16,1.,0.));
#1457=DIRECTION('center_axis',(0.,0.707106781186555,0.70710678118654));
#1458=DIRECTION('ref_axis',(1.,0.,0.));
#1459=DIRECTION('',(5.88784672006409E-16,-0.70710678118654,0.707106781186555));
#1460=DIRECTION('',(1.,0.,0.));
#1461=DIRECTION('',(-1.57009245868376E-15,0.70710678118654,-0.707106781186555));
#1462=DIRECTION('center_axis',(0.,0.,1.));
#1463=DIRECTION('ref_axis',(1.,0.,0.));
#1464=DIRECTION('',(0.,-1.,0.));
#1465=DIRECTION('',(-1.,0.,0.));
#1466=DIRECTION('',(0.,1.,0.));
#1467=DIRECTION('',(1.,0.,0.));
#1468=DIRECTION('',(0.,-1.,0.));
#1469=DIRECTION('',(-1.,0.,0.));
#1470=DIRECTION('',(0.,1.,0.));
#1471=DIRECTION('',(0.,1.,0.));
#1472=DIRECTION('',(1.,0.,0.));
#1473=DIRECTION('',(0.,-1.,0.));
#1474=DIRECTION('',(-1.,0.,0.));
#1475=DIRECTION('',(1.,0.,0.));
#1476=DIRECTION('',(0.,-1.,0.));
#1477=DIRECTION('',(-1.,0.,0.));
#1478=DIRECTION('',(0.,1.,0.));
#1479=DIRECTION('',(0.,1.,0.));
#1480=DIRECTION('',(1.,0.,0.));
#1481=DIRECTION('',(0.,-1.,0.));
#1482=DIRECTION('',(-1.,0.,0.));
#1483=DIRECTION('center_axis',(-1.,-8.32667268468867E-16,0.));
#1484=DIRECTION('ref_axis',(0.,0.,1.));
#1485=DIRECTION('',(8.32667268468867E-16,-1.,0.));
#1486=DIRECTION('',(8.32667268468867E-16,-1.,0.));
#1487=DIRECTION('',(8.32667268468867E-16,-1.,0.));
#1488=DIRECTION('',(0.,0.,1.));
#1489=DIRECTION('',(5.88784672006399E-16,-0.707106781186528,-0.707106781186567));
#1490=DIRECTION('center_axis',(0.,-0.707106781186554,-0.707106781186541));
#1491=DIRECTION('ref_axis',(-1.,0.,0.));
#1492=DIRECTION('',(1.,0.,0.));
#1493=DIRECTION('',(1.57009245868376E-15,-0.707106781186541,0.707106781186554));
#1494=DIRECTION('',(-1.,0.,0.));
#1495=DIRECTION('center_axis',(0.,-1.,0.));
#1496=DIRECTION('ref_axis',(0.,0.,-1.));
#1497=DIRECTION('',(0.,0.,-1.));
#1498=DIRECTION('',(1.,0.,0.));
#1499=DIRECTION('',(-1.,0.,0.));
#1500=DIRECTION('',(0.,0.,1.));
#1501=DIRECTION('',(-1.,0.,0.));
#1502=DIRECTION('center_axis',(0.,-0.707106781186567,0.707106781186528));
#1503=DIRECTION('ref_axis',(1.,0.,0.));
#1504=DIRECTION('',(-1.57009245868373E-15,0.707106781186528,0.707106781186567));
#1505=DIRECTION('center_axis',(1.,0.,0.));
#1506=DIRECTION('ref_axis',(0.,-8.21730162665732E-31,1.));
#1507=DIRECTION('',(0.,0.,-1.));
#1508=DIRECTION('',(0.,-1.,0.));
#1509=DIRECTION('',(0.,0.,1.));
#1510=DIRECTION('',(0.,-1.,0.));
#1511=DIRECTION('center_axis',(0.,-1.,0.));
#1512=DIRECTION('ref_axis',(0.,0.,-1.));
#1513=DIRECTION('',(-1.,0.,0.));
#1514=DIRECTION('',(1.,0.,0.));
#1515=DIRECTION('',(0.,0.,-1.));
#1516=DIRECTION('',(-1.,0.,0.));
#1517=DIRECTION('',(-1.,0.,0.));
#1518=DIRECTION('center_axis',(0.,0.,-1.));
#1519=DIRECTION('ref_axis',(0.,-1.,0.));
#1520=DIRECTION('',(-1.,0.,0.));
#1521=DIRECTION('',(0.,-1.,0.));
#1522=DIRECTION('center_axis',(0.,0.,1.));
#1523=DIRECTION('ref_axis',(0.,1.,0.));
#1524=DIRECTION('',(0.,1.,0.));
#1525=DIRECTION('',(-1.,0.,0.));
#1526=DIRECTION('center_axis',(-1.,0.,0.));
#1527=DIRECTION('ref_axis',(0.,0.,1.));
#1528=DIRECTION('center_axis',(0.,0.707106781186548,0.707106781186548));
#1529=DIRECTION('ref_axis',(1.,0.,0.));
#1530=DIRECTION('',(-0.577350269189626,0.577350269189626,-0.577350269189626));
#1531=DIRECTION('',(-1.,0.,0.));
#1532=DIRECTION('',(0.577350269189626,0.577350269189626,-0.577350269189626));
#1533=DIRECTION('center_axis',(-0.707106781186547,0.,0.707106781186548));
#1534=DIRECTION('ref_axis',(0.707106781186548,0.,0.707106781186547));
#1535=DIRECTION('',(-0.577350269189626,-0.577350269189626,-0.577350269189625));
#1536=DIRECTION('',(0.,-1.,0.));
#1537=DIRECTION('center_axis',(0.,-0.707106781186547,0.707106781186548));
#1538=DIRECTION('ref_axis',(1.,0.,0.));
#1539=DIRECTION('',(0.577350269189626,-0.577350269189626,-0.577350269189625));
#1540=DIRECTION('',(1.,0.,0.));
#1541=DIRECTION('center_axis',(0.707106781186547,0.,0.707106781186548));
#1542=DIRECTION('ref_axis',(0.707106781186548,0.,-0.707106781186547));
#1543=DIRECTION('',(0.,1.,0.));
#1544=DIRECTION('center_axis',(1.,0.,0.));
#1545=DIRECTION('ref_axis',(0.,1.,0.));
#1546=DIRECTION('',(0.,0.,1.));
#1547=DIRECTION('',(0.,1.,0.));
#1548=DIRECTION('',(0.,0.,1.));
#1549=DIRECTION('center_axis',(0.,1.,0.));
#1550=DIRECTION('ref_axis',(-1.,0.,0.));
#1551=DIRECTION('',(0.,0.,1.));
#1552=DIRECTION('',(1.,0.,0.));
#1553=DIRECTION('center_axis',(-0.707106781186547,0.,0.707106781186548));
#1554=DIRECTION('ref_axis',(0.707106781186548,0.,0.707106781186547));
#1555=DIRECTION('',(-0.577350269189626,-0.577350269189626,-0.577350269189625));
#1556=DIRECTION('',(0.,-1.,0.));
#1557=DIRECTION('',(-0.577350269189626,0.577350269189626,-0.577350269189625));
#1558=DIRECTION('center_axis',(0.,-0.707106781186547,0.707106781186548));
#1559=DIRECTION('ref_axis',(1.,0.,0.));
#1560=DIRECTION('',(0.577350269189624,-0.577350269189627,-0.577350269189626));
#1561=DIRECTION('',(1.,0.,0.));
#1562=DIRECTION('center_axis',(0.707106781186549,0.,0.707106781186546));
#1563=DIRECTION('ref_axis',(0.707106781186546,0.,-0.707106781186549));
#1564=DIRECTION('',(0.577350269189624,0.577350269189627,-0.577350269189626));
#1565=DIRECTION('',(0.,1.,0.));
#1566=DIRECTION('center_axis',(0.,0.707106781186547,0.707106781186548));
#1567=DIRECTION('ref_axis',(1.,0.,0.));
#1568=DIRECTION('',(-1.,0.,0.));
#1569=DIRECTION('center_axis',(0.,1.,0.));
#1570=DIRECTION('ref_axis',(-1.,0.,0.));
#1571=DIRECTION('',(0.,0.,1.));
#1572=DIRECTION('',(1.,0.,0.));
#1573=DIRECTION('',(0.,0.,1.));
#1574=DIRECTION('center_axis',(-1.,0.,0.));
#1575=DIRECTION('ref_axis',(0.,-1.,0.));
#1576=DIRECTION('',(0.,0.,1.));
#1577=DIRECTION('',(0.,-1.,0.));
#1578=DIRECTION('center_axis',(0.,0.,1.));
#1579=DIRECTION('ref_axis',(1.,0.,0.));
#1580=DIRECTION('',(-1.,-6.93889390390738E-16,0.));
#1581=DIRECTION('',(-2.22044604925031E-15,1.,0.));
#1582=DIRECTION('',(-1.,0.,0.));
#1583=DIRECTION('',(0.,1.,0.));
#1584=DIRECTION('',(1.,0.,0.));
#1585=DIRECTION('',(0.,1.,0.));
#1586=DIRECTION('',(-1.,0.,0.));
#1587=DIRECTION('',(0.,-1.,0.));
#1588=DIRECTION('',(0.,-1.,0.));
#1589=DIRECTION('',(-1.,0.,0.));
#1590=DIRECTION('',(0.,1.,0.));
#1591=DIRECTION('',(1.,0.,0.));
#1592=DIRECTION('',(-1.,0.,0.));
#1593=DIRECTION('',(0.,-1.,0.));
#1594=DIRECTION('center_axis',(-1.,0.,0.));
#1595=DIRECTION('ref_axis',(0.,-1.,0.));
#1596=DIRECTION('',(0.,0.,1.));
#1597=DIRECTION('center_axis',(0.,-1.,0.));
#1598=DIRECTION('ref_axis',(1.,0.,0.));
#1599=DIRECTION('center_axis',(1.,0.,0.));
#1600=DIRECTION('ref_axis',(0.,1.,0.));
#1601=DIRECTION('',(0.,0.,1.));
#1602=DIRECTION('center_axis',(0.,-1.,0.));
#1603=DIRECTION('ref_axis',(1.,0.,0.));
#1604=DIRECTION('center_axis',(-0.707106781186547,0.,0.707106781186548));
#1605=DIRECTION('ref_axis',(0.707106781186548,0.,0.707106781186547));
#1606=DIRECTION('',(-0.577350269189626,-0.577350269189626,-0.577350269189625));
#1607=DIRECTION('',(0.,-1.,0.));
#1608=DIRECTION('',(-0.577350269189626,0.577350269189626,-0.577350269189626));
#1609=DIRECTION('center_axis',(0.,-0.707106781186547,0.707106781186548));
#1610=DIRECTION('ref_axis',(1.,0.,0.));
#1611=DIRECTION('',(0.577350269189624,-0.577350269189627,-0.577350269189626));
#1612=DIRECTION('',(1.,0.,0.));
#1613=DIRECTION('center_axis',(0.707106781186549,0.,0.707106781186546));
#1614=DIRECTION('ref_axis',(0.707106781186546,0.,-0.707106781186549));
#1615=DIRECTION('',(0.577350269189624,0.577350269189626,-0.577350269189626));
#1616=DIRECTION('',(0.,1.,0.));
#1617=DIRECTION('center_axis',(0.,0.707106781186548,0.707106781186548));
#1618=DIRECTION('ref_axis',(1.,0.,0.));
#1619=DIRECTION('',(-1.,0.,0.));
#1620=DIRECTION('center_axis',(0.,1.,0.));
#1621=DIRECTION('ref_axis',(-1.,0.,0.));
#1622=DIRECTION('',(0.,0.,1.));
#1623=DIRECTION('',(0.,0.,1.));
#1624=DIRECTION('center_axis',(-1.,0.,0.));
#1625=DIRECTION('ref_axis',(0.,-1.,0.));
#1626=DIRECTION('',(0.,0.,1.));
#1627=DIRECTION('center_axis',(0.,-1.,0.));
#1628=DIRECTION('ref_axis',(1.,0.,0.));
#1629=DIRECTION('',(0.,0.,1.));
#1630=DIRECTION('center_axis',(1.,0.,0.));
#1631=DIRECTION('ref_axis',(0.,1.,0.));
#1632=DIRECTION('center_axis',(0.,0.,1.));
#1633=DIRECTION('ref_axis',(1.,0.,0.));
#1634=DIRECTION('',(-2.22044604925031E-15,1.,0.));
#1635=DIRECTION('',(1.,0.,0.));
#1636=DIRECTION('',(2.22044604925031E-15,-1.,0.));
#1637=DIRECTION('',(-1.,0.,0.));
#1638=DIRECTION('center_axis',(1.,2.22044604925031E-15,0.));
#1639=DIRECTION('ref_axis',(0.,0.,-1.));
#1640=DIRECTION('',(0.,0.,1.));
#1641=DIRECTION('',(0.,0.,-1.));
#1642=DIRECTION('',(2.22044604925031E-15,-1.,0.));
#1643=DIRECTION('center_axis',(1.,2.22044604925031E-15,0.));
#1644=DIRECTION('ref_axis',(0.,-0.707106781186548,0.707106781186548));
#1645=DIRECTION('',(0.,0.,-1.));
#1646=DIRECTION('',(2.22044604925031E-15,-1.,0.));
#1647=DIRECTION('',(0.,0.,1.));
#1648=DIRECTION('',(2.22044604925031E-15,-1.,0.));
#1649=DIRECTION('',(0.,0.,1.));
#1650=DIRECTION('center_axis',(1.,2.22044604925031E-15,0.));
#1651=DIRECTION('ref_axis',(0.,0.707106781186548,0.707106781186548));
#1652=DIRECTION('',(2.22044604925031E-15,-1.,0.));
#1653=DIRECTION('center_axis',(-1.,0.,0.));
#1654=DIRECTION('ref_axis',(0.,0.,1.));
#1655=DIRECTION('',(2.22044604925031E-15,-1.,0.));
#1656=DIRECTION('',(0.,0.,1.));
#1657=DIRECTION('',(0.,-1.,0.));
#1658=DIRECTION('center_axis',(1.,2.22044604925031E-15,0.));
#1659=DIRECTION('ref_axis',(0.,0.707106781186548,0.707106781186548));
#1660=DIRECTION('center_axis',(0.,1.,0.));
#1661=DIRECTION('ref_axis',(0.,0.,-1.));
#1662=DIRECTION('',(0.,0.,-1.));
#1663=DIRECTION('',(0.,0.,-1.));
#1664=DIRECTION('',(-1.,0.,0.));
#1665=DIRECTION('center_axis',(0.,-1.,0.));
#1666=DIRECTION('ref_axis',(0.,0.,1.));
#1667=DIRECTION('',(0.,0.,1.));
#1668=DIRECTION('',(-1.,0.,0.));
#1669=DIRECTION('center_axis',(0.,0.,-1.));
#1670=DIRECTION('ref_axis',(0.,-1.,0.));
#1671=DIRECTION('',(2.22044604925031E-15,-1.,0.));
#1672=DIRECTION('',(0.,-1.,0.));
#1673=DIRECTION('',(-2.22044604925031E-15,1.,0.));
#1674=DIRECTION('center_axis',(-1.,0.,0.));
#1675=DIRECTION('ref_axis',(0.,0.,1.));
#1676=DIRECTION('',(2.22044604925031E-15,-1.,0.));
#1677=DIRECTION('center_axis',(1.,2.22044604925031E-15,0.));
#1678=DIRECTION('ref_axis',(0.,-0.707106781186548,0.707106781186548));
#1679=DIRECTION('center_axis',(1.,2.22044604925031E-15,0.));
#1680=DIRECTION('ref_axis',(0.,0.,-1.));
#1681=DIRECTION('center_axis',(1.,2.22044604925031E-15,0.));
#1682=DIRECTION('ref_axis',(0.,-0.707106781186548,0.707106781186548));
#1683=DIRECTION('',(0.,0.,-1.));
#1684=DIRECTION('',(2.22044604925031E-15,-1.,0.));
#1685=DIRECTION('',(0.,0.,1.));
#1686=DIRECTION('center_axis',(1.,2.22044604925031E-15,0.));
#1687=DIRECTION('ref_axis',(0.,0.707106781186548,0.707106781186548));
#1688=DIRECTION('center_axis',(-1.,0.,0.));
#1689=DIRECTION('ref_axis',(0.,0.707106781186548,0.707106781186548));
#1690=DIRECTION('center_axis',(1.,0.,0.));
#1691=DIRECTION('ref_axis',(0.,0.707106781186548,0.707106781186548));
#1692=DIRECTION('',(1.,0.,0.));
#1693=DIRECTION('',(-1.,0.,0.));
#1694=DIRECTION('center_axis',(0.,1.,0.));
#1695=DIRECTION('ref_axis',(-1.,0.,0.));
#1696=DIRECTION('',(1.,0.,0.));
#1697=DIRECTION('',(0.,0.,1.));
#1698=DIRECTION('center_axis',(1.,0.,0.));
#1699=DIRECTION('ref_axis',(0.,-0.707106781186548,0.707106781186548));
#1700=DIRECTION('center_axis',(1.,0.,0.));
#1701=DIRECTION('ref_axis',(0.,-0.707106781186548,0.707106781186548));
#1702=DIRECTION('',(1.,0.,0.));
#1703=DIRECTION('',(-1.,0.,0.));
#1704=DIRECTION('center_axis',(0.,0.,1.));
#1705=DIRECTION('ref_axis',(1.,0.,0.));
#1706=DIRECTION('',(0.,-1.,0.));
#1707=DIRECTION('center_axis',(-1.,0.,0.));
#1708=DIRECTION('ref_axis',(0.,0.707106781186548,0.707106781186548));
#1709=DIRECTION('center_axis',(1.,0.,0.));
#1710=DIRECTION('ref_axis',(0.,0.707106781186548,0.707106781186548));
#1711=DIRECTION('',(1.,0.,0.));
#1712=DIRECTION('',(-1.,0.,0.));
#1713=DIRECTION('center_axis',(0.,0.,1.));
#1714=DIRECTION('ref_axis',(1.,0.,0.));
#1715=DIRECTION('',(0.,-1.,0.));
#1716=DIRECTION('',(-1.,0.,0.));
#1717=DIRECTION('center_axis',(-1.,0.,0.));
#1718=DIRECTION('ref_axis',(0.,-1.,0.));
#1719=DIRECTION('',(0.,0.,1.));
#1720=DIRECTION('',(0.,1.,0.));
#1721=DIRECTION('',(0.,0.,1.));
#1722=DIRECTION('center_axis',(1.,0.,0.));
#1723=DIRECTION('ref_axis',(0.,-0.707106781186548,0.707106781186548));
#1724=DIRECTION('center_axis',(1.,0.,0.));
#1725=DIRECTION('ref_axis',(0.,-0.707106781186548,0.707106781186548));
#1726=DIRECTION('',(1.,0.,0.));
#1727=DIRECTION('center_axis',(0.,-1.,0.));
#1728=DIRECTION('ref_axis',(1.,0.,0.));
#1729=DIRECTION('',(-1.,0.,0.));
#1730=DIRECTION('center_axis',(1.,0.,0.));
#1731=DIRECTION('ref_axis',(0.,-1.,0.));
#1732=DIRECTION('',(0.,0.,-1.));
#1733=DIRECTION('',(0.,0.,1.));
#1734=DIRECTION('center_axis',(0.,-1.,0.));
#1735=DIRECTION('ref_axis',(-1.,0.,0.));
#1736=DIRECTION('',(0.,0.,-1.));
#1737=DIRECTION('center_axis',(-1.,0.,0.));
#1738=DIRECTION('ref_axis',(0.,1.,0.));
#1739=DIRECTION('',(0.,0.,-1.));
#1740=DIRECTION('center_axis',(0.,1.,0.));
#1741=DIRECTION('ref_axis',(1.,0.,0.));
#1742=DIRECTION('center_axis',(0.,0.,-1.));
#1743=DIRECTION('ref_axis',(-1.,0.,0.));
#1744=DIRECTION('',(0.,1.,0.));
#1745=DIRECTION('center_axis',(0.,1.,0.));
#1746=DIRECTION('ref_axis',(-1.,0.,0.));
#1747=DIRECTION('',(1.,0.,0.));
#1748=DIRECTION('center_axis',(0.,-1.,0.));
#1749=DIRECTION('ref_axis',(1.,0.,0.));
#1750=DIRECTION('',(0.,0.,1.));
#1751=DIRECTION('',(-1.,0.,0.));
#1752=DIRECTION('center_axis',(-1.,0.,0.));
#1753=DIRECTION('ref_axis',(0.,-1.,0.));
#1754=DIRECTION('',(0.,1.,0.));
#1755=DIRECTION('center_axis',(0.,0.,1.));
#1756=DIRECTION('ref_axis',(1.,0.,0.));
#1757=DIRECTION('',(1.,6.93889390390738E-16,0.));
#1758=DIRECTION('center_axis',(-6.93889390390738E-16,1.,0.));
#1759=DIRECTION('ref_axis',(0.,0.,1.));
#1760=DIRECTION('center_axis',(1.,2.22044604925031E-15,0.));
#1761=DIRECTION('ref_axis',(0.,0.,-1.));
#1762=CARTESIAN_POINT('',(0.,0.,0.));
#1763=CARTESIAN_POINT('Origin',(-12.3209506046534,24.2719675949636,-0.5));
#1764=CARTESIAN_POINT('',(-51.0334506046533,23.7719675949636,-1.));
#1765=CARTESIAN_POINT('',(-51.0334506046533,24.7719675949636,0.));
#1766=CARTESIAN_POINT('',(-51.0334506046533,24.0157175949636,-0.756250000000008));
#1767=CARTESIAN_POINT('',(1.91654939534652,24.7719675949636,0.));
#1768=CARTESIAN_POINT('',(-12.3209506046534,24.7719675949636,0.));
#1769=CARTESIAN_POINT('',(1.91654939534652,23.7719675949636,-1.));
#1770=CARTESIAN_POINT('',(1.91654939534653,18.7782175949635,-5.99374999999996));
#1771=CARTESIAN_POINT('',(-12.3209506046534,23.7719675949636,-1.));
#1772=CARTESIAN_POINT('Origin',(-0.0834506046534855,24.7719675949636,0.));
#1773=CARTESIAN_POINT('',(-51.0334506046533,24.7719675949636,6.50000009685755));
#1774=CARTESIAN_POINT('',(-51.0334506046533,24.7719675949636,6.));
#1775=CARTESIAN_POINT('',(-54.0334506046533,24.7719675949636,6.50000009685755));
#1776=CARTESIAN_POINT('',(-51.0334506046533,24.7719675949636,6.50000009685755));
#1777=CARTESIAN_POINT('',(-54.0334506046533,24.7719675949636,8.));
#1778=CARTESIAN_POINT('',(-54.0334506046533,24.7719675949636,8.));
#1779=CARTESIAN_POINT('',(-51.0334506046533,24.7719675949636,8.));
#1780=CARTESIAN_POINT('',(-51.0334506046533,24.7719675949636,8.));
#1781=CARTESIAN_POINT('',(-51.0334506046533,24.7719675949636,9.));
#1782=CARTESIAN_POINT('',(-51.0334506046533,24.7719675949636,6.));
#1783=CARTESIAN_POINT('',(1.91654939534652,24.7719675949636,9.));
#1784=CARTESIAN_POINT('',(-12.3209506046534,24.7719675949636,9.));
#1785=CARTESIAN_POINT('',(1.91654939534652,24.7719675949636,9.));
#1786=CARTESIAN_POINT('Origin',(-51.0334506046533,22.7469675949636,0.));
#1787=CARTESIAN_POINT('',(-51.0334506046533,0.771967594963683,-1.));
#1788=CARTESIAN_POINT('',(-51.0334506046533,22.7469675949636,-1.));
#1789=CARTESIAN_POINT('',(-51.0334506046533,-0.228032405036339,0.));
#1790=CARTESIAN_POINT('',(-51.0334506046533,5.76571759496356,-5.99374999999997));
#1791=CARTESIAN_POINT('',(-51.0334506046533,-0.228032405036298,6.50000009685755));
#1792=CARTESIAN_POINT('',(-51.0334506046533,-0.228032405036339,9.));
#1793=CARTESIAN_POINT('',(-51.0334506046533,1.7719675949637,6.50000009685755));
#1794=CARTESIAN_POINT('',(-51.0334506046533,12.2594675949637,6.50000009685755));
#1795=CARTESIAN_POINT('',(-51.0334506046533,1.77196759496366,1.));
#1796=CARTESIAN_POINT('',(-51.0334506046533,1.77196759496366,0.));
#1797=CARTESIAN_POINT('',(-51.0334506046533,22.7719675949636,1.));
#1798=CARTESIAN_POINT('',(-51.0334506046533,17.5094675949636,1.));
#1799=CARTESIAN_POINT('',(-51.0334506046533,22.7719675949636,6.50000009685755));
#1800=CARTESIAN_POINT('',(-51.0334506046533,22.7719675949636,0.));
#1801=CARTESIAN_POINT('',(-51.0334506046533,23.7594675949636,6.50000009685755));
#1802=CARTESIAN_POINT('Origin',(-12.3209506046534,24.2719675949636,9.5));
#1803=CARTESIAN_POINT('',(-51.0334506046533,23.7719675949636,10.));
#1804=CARTESIAN_POINT('',(-51.0334506046534,26.2657175949636,7.50624999999996));
#1805=CARTESIAN_POINT('',(1.91654939534655,23.7719675949636,10.));
#1806=CARTESIAN_POINT('',(-12.3209506046534,23.7719675949636,10.));
#1807=CARTESIAN_POINT('',(1.91654939534652,21.0282175949638,12.7437499999999));
#1808=CARTESIAN_POINT('Origin',(-24.5584506046534,12.2719675949636,10.));
#1809=CARTESIAN_POINT('',(-51.0334506046533,0.771967594963643,10.));
#1810=CARTESIAN_POINT('',(-51.0334506046533,23.7719675949636,10.));
#1811=CARTESIAN_POINT('',(1.91654939534655,0.771967594963644,10.));
#1812=CARTESIAN_POINT('',(-36.7959506046534,0.771967594963644,10.));
#1813=CARTESIAN_POINT('',(1.91654939534655,0.771967594963701,10.));
#1814=CARTESIAN_POINT('',(-37.6544124707855,7.28926058560056,10.));
#1815=CARTESIAN_POINT('',(-27.6288661404092,7.28926058560056,10.));
#1816=CARTESIAN_POINT('',(-26.5936583725313,7.28926058560056,10.));
#1817=CARTESIAN_POINT('',(-37.6544124707855,17.2871667951953,10.));
#1818=CARTESIAN_POINT('',(-37.6544124707855,10.2806140902821,10.));
#1819=CARTESIAN_POINT('',(-27.6288661404092,17.2871667951953,10.));
#1820=CARTESIAN_POINT('',(-30.6064315377195,17.2871667951953,10.));
#1821=CARTESIAN_POINT('',(-27.6288661404092,14.2795671950795,10.));
#1822=CARTESIAN_POINT('',(-38.0000005960464,2.00000005960465,10.));
#1823=CARTESIAN_POINT('',(-38.0000005960464,12.0000001490116,10.));
#1824=CARTESIAN_POINT('',(-38.0000005960464,11.6359838719876,10.));
#1825=CARTESIAN_POINT('',(-48.0000006854534,2.00000005960465,10.));
#1826=CARTESIAN_POINT('',(-31.7792256003499,2.00000005960465,10.));
#1827=CARTESIAN_POINT('',(-48.0000006854534,12.0000001490116,10.));
#1828=CARTESIAN_POINT('',(-48.0000006854534,7.63598382728414,10.));
#1829=CARTESIAN_POINT('',(-35.7792256450534,12.0000001490116,10.));
#1830=CARTESIAN_POINT('',(-26.9477744245996,13.4905589443951,10.));
#1831=CARTESIAN_POINT('',(-23.1887179983097,13.4905589443951,10.));
#1832=CARTESIAN_POINT('',(-25.7531125146265,13.4905589443951,10.));
#1833=CARTESIAN_POINT('',(-23.1887179983097,11.1135085571824,10.));
#1834=CARTESIAN_POINT('',(-23.1887179983097,12.8812632696794,10.));
#1835=CARTESIAN_POINT('',(-26.9477744245996,11.1135085571824,10.));
#1836=CARTESIAN_POINT('',(-23.8735843014816,11.1135085571824,10.));
#1837=CARTESIAN_POINT('',(-26.9477744245996,11.692738076073,10.));
#1838=CARTESIAN_POINT('',(-38.0000005960464,12.5000002160668,10.));
#1839=CARTESIAN_POINT('',(-38.0000005960464,22.5000003054738,10.));
#1840=CARTESIAN_POINT('',(-38.0000005960464,16.8859839502187,10.));
#1841=CARTESIAN_POINT('',(-48.0000006854534,12.5000002160668,10.));
#1842=CARTESIAN_POINT('',(-31.7792256003499,12.5000002160668,10.));
#1843=CARTESIAN_POINT('',(-48.0000006854534,22.5000003054738,10.));
#1844=CARTESIAN_POINT('',(-48.0000006854534,12.8859839055152,10.));
#1845=CARTESIAN_POINT('',(-35.7792256450534,22.5000003054738,10.));
#1846=CARTESIAN_POINT('Origin',(-51.0334506046533,22.7469675949636,0.));
#1847=CARTESIAN_POINT('',(-51.0334506046533,22.7719675949636,8.));
#1848=CARTESIAN_POINT('',(-51.0334506046533,22.7594675949636,8.));
#1849=CARTESIAN_POINT('',(-51.0334506046533,1.77196759496366,8.));
#1850=CARTESIAN_POINT('',(-51.0334506046533,17.5094675949636,8.));
#1851=CARTESIAN_POINT('',(-51.0334506046533,-0.228032405036298,8.));
#1852=CARTESIAN_POINT('',(-51.0334506046533,11.2594675949637,8.));
#1853=CARTESIAN_POINT('',(-51.0334506046533,-0.228032405036339,9.));
#1854=CARTESIAN_POINT('',(-51.0334506046533,-0.228032405036339,9.));
#1855=CARTESIAN_POINT('',(-51.0334506046533,3.51571759496334,12.7437499999998));
#1856=CARTESIAN_POINT('Origin',(-36.7959506046534,0.271967594963691,-0.5));
#1857=CARTESIAN_POINT('',(1.91654939534652,0.771967594963683,-1.));
#1858=CARTESIAN_POINT('',(-36.7959506046534,0.771967594963682,-1.));
#1859=CARTESIAN_POINT('',(1.91654939534655,-0.228032405036299,0.));
#1860=CARTESIAN_POINT('',(1.91654939534657,0.528217594963708,-0.756250000000022));
#1861=CARTESIAN_POINT('',(-36.7959506046534,-0.228032405036299,0.));
#1862=CARTESIAN_POINT('Origin',(-49.0334506046533,-0.228032405036299,0.));
#1863=CARTESIAN_POINT('',(1.91654939534655,-0.228032405036299,9.));
#1864=CARTESIAN_POINT('',(1.91654939534655,-0.228032405036299,0.));
#1865=CARTESIAN_POINT('',(-36.7959506046534,-0.228032405036299,9.));
#1866=CARTESIAN_POINT('',(-54.0334506046533,-0.228032405036298,8.));
#1867=CARTESIAN_POINT('',(-51.0334506046533,-0.228032405036298,8.));
#1868=CARTESIAN_POINT('',(-54.0334506046533,-0.228032405036298,6.50000009685755));
#1869=CARTESIAN_POINT('',(-54.0334506046533,-0.228032405036298,8.));
#1870=CARTESIAN_POINT('',(-51.0334506046533,-0.228032405036298,6.50000009685755));
#1871=CARTESIAN_POINT('Origin',(-36.7959506046534,0.271967594963672,9.5));
#1872=CARTESIAN_POINT('',(1.91654939534657,-1.72178240503632,7.50624999999989));
#1873=CARTESIAN_POINT('Origin',(-52.5334506046533,22.7719675949636,6.50000009685755));
#1874=CARTESIAN_POINT('',(-52.5334506046533,22.7719675949636,8.));
#1875=CARTESIAN_POINT('',(-52.5334506046533,22.7719675949636,6.50000009685755));
#1876=CARTESIAN_POINT('',(-52.5334506046533,22.7719675949636,3.25000004842877));
#1877=CARTESIAN_POINT('',(-52.5334506046533,1.77196759496361,8.));
#1878=CARTESIAN_POINT('',(-52.5334506046533,22.7719675949636,8.));
#1879=CARTESIAN_POINT('',(-52.5334506046533,1.77196759496361,6.50000009685755));
#1880=CARTESIAN_POINT('',(-52.5334506046533,1.77196759496366,3.25000004842877));
#1881=CARTESIAN_POINT('',(-52.5334506046533,22.7719675949636,6.50000009685755));
#1882=CARTESIAN_POINT('Origin',(-49.0334506046533,1.77196759496366,0.));
#1883=CARTESIAN_POINT('',(-51.0334506046533,1.7719675949637,8.));
#1884=CARTESIAN_POINT('',(0.916549395346564,1.77196759496366,8.));
#1885=CARTESIAN_POINT('',(-36.7959506046534,1.77196759496366,8.));
#1886=CARTESIAN_POINT('',(0.916549395346564,1.77196759496366,1.));
#1887=CARTESIAN_POINT('',(0.916549395346564,1.77196759496366,0.));
#1888=CARTESIAN_POINT('',(-36.7959506046534,1.77196759496366,1.));
#1889=CARTESIAN_POINT('',(-51.0334506046533,1.7719675949637,6.50000009685755));
#1890=CARTESIAN_POINT('Origin',(-51.0334506046533,24.7719675949636,6.50000009685755));
#1891=CARTESIAN_POINT('',(-51.0334506046533,22.7719675949636,6.50000009685755));
#1892=CARTESIAN_POINT('',(-54.0334506046533,24.7719675949636,6.50000009685755));
#1893=CARTESIAN_POINT('Origin',(-51.0334506046533,22.7719675949636,8.));
#1894=CARTESIAN_POINT('',(-54.0334506046533,-0.228032405036298,8.));
#1895=CARTESIAN_POINT('',(-51.0334506046533,22.7719675949636,8.));
#1896=CARTESIAN_POINT('Origin',(-54.0334506046533,23.7719675949636,7.25000004842878));
#1897=CARTESIAN_POINT('Origin',(-26.5936583725313,7.78926058560056,9.5));
#1898=CARTESIAN_POINT('',(-28.6288661404092,8.28926058560056,9.));
#1899=CARTESIAN_POINT('',(-27.6288661404092,7.28926058560056,10.));
#1900=CARTESIAN_POINT('',(-36.6544124707855,8.28926058560056,9.));
#1901=CARTESIAN_POINT('',(-26.5936583725313,8.28926058560056,9.));
#1902=CARTESIAN_POINT('',(-37.6544124707855,7.28926058560056,10.));
#1903=CARTESIAN_POINT('Origin',(-28.1288661404092,14.2795671950795,9.5));
#1904=CARTESIAN_POINT('',(-28.6288661404092,16.2871667951953,9.));
#1905=CARTESIAN_POINT('',(-27.6288661404092,17.2871667951953,10.));
#1906=CARTESIAN_POINT('',(-28.6288661404092,14.2795671950795,9.));
#1907=CARTESIAN_POINT('Origin',(-30.6064315377195,16.7871667951953,9.5));
#1908=CARTESIAN_POINT('',(-36.6544124707855,16.2871667951953,9.));
#1909=CARTESIAN_POINT('',(-37.6544124707855,17.2871667951953,10.));
#1910=CARTESIAN_POINT('',(-30.6064315377195,16.2871667951953,9.));
#1911=CARTESIAN_POINT('Origin',(-37.1544124707855,10.2806140902821,9.5));
#1912=CARTESIAN_POINT('',(-36.6544124707855,10.2806140902821,9.));
#1913=CARTESIAN_POINT('Origin',(-36.6544124707855,8.28926058560056,9.));
#1914=CARTESIAN_POINT('',(-36.6544124707855,8.28926058560056,8.));
#1915=CARTESIAN_POINT('',(-36.6544124707855,8.28926058560056,9.));
#1916=CARTESIAN_POINT('',(-36.6544124707855,16.2871667951953,8.));
#1917=CARTESIAN_POINT('',(-36.6544124707855,10.2806140902821,8.));
#1918=CARTESIAN_POINT('',(-36.6544124707855,16.2871667951953,9.));
#1919=CARTESIAN_POINT('Origin',(-28.6288661404092,8.28926058560056,9.));
#1920=CARTESIAN_POINT('',(-28.6288661404092,8.28926058560056,8.));
#1921=CARTESIAN_POINT('',(-28.6288661404092,8.28926058560056,9.));
#1922=CARTESIAN_POINT('',(-26.5936583725313,8.28926058560056,8.));
#1923=CARTESIAN_POINT('Origin',(-38.5000005960464,16.8859839502187,9.5));
#1924=CARTESIAN_POINT('',(-39.0000005960464,21.5000003054738,9.));
#1925=CARTESIAN_POINT('',(-38.0000005960464,22.5000003054738,10.));
#1926=CARTESIAN_POINT('',(-39.0000005960464,13.5000002160668,9.));
#1927=CARTESIAN_POINT('',(-39.0000005960464,16.8859839502187,9.));
#1928=CARTESIAN_POINT('',(-38.0000005960464,12.5000002160668,10.));
#1929=CARTESIAN_POINT('Origin',(-35.7792256450534,22.0000003054738,9.5));
#1930=CARTESIAN_POINT('',(-47.0000006854534,21.5000003054738,9.));
#1931=CARTESIAN_POINT('',(-48.0000006854534,22.5000003054738,10.));
#1932=CARTESIAN_POINT('',(-35.7792256450534,21.5000003054738,9.));
#1933=CARTESIAN_POINT('Origin',(-47.5000006854534,12.8859839055152,9.5));
#1934=CARTESIAN_POINT('',(-47.0000006854534,13.5000002160668,9.));
#1935=CARTESIAN_POINT('',(-48.0000006854534,12.5000002160668,10.));
#1936=CARTESIAN_POINT('',(-47.0000006854534,12.8859839055152,9.));
#1937=CARTESIAN_POINT('Origin',(-31.7792256003499,13.0000002160668,9.5));
#1938=CARTESIAN_POINT('',(-31.7792256003499,13.5000002160668,9.));
#1939=CARTESIAN_POINT('Origin',(-39.0000005960464,13.5000002160668,9.));
#1940=CARTESIAN_POINT('',(-39.0000005960464,13.5000002160668,8.));
#1941=CARTESIAN_POINT('',(-39.0000005960464,13.5000002160668,9.));
#1942=CARTESIAN_POINT('',(-47.0000006854534,13.5000002160668,8.));
#1943=CARTESIAN_POINT('',(-31.7792256003499,13.5000002160668,8.));
#1944=CARTESIAN_POINT('',(-47.0000006854534,13.5000002160668,9.));
#1945=CARTESIAN_POINT('Origin',(-39.0000005960464,21.5000003054738,9.));
#1946=CARTESIAN_POINT('',(-39.0000005960464,21.5000003054738,8.));
#1947=CARTESIAN_POINT('',(-39.0000005960464,21.5000003054738,9.));
#1948=CARTESIAN_POINT('',(-39.0000005960464,16.8859839502187,8.));
#1949=CARTESIAN_POINT('Origin',(-24.5584506046534,12.2719675949636,8.));
#1950=CARTESIAN_POINT('',(0.91654939534652,22.7719675949636,8.));
#1951=CARTESIAN_POINT('',(-12.3209506046534,22.7719675949636,8.));
#1952=CARTESIAN_POINT('',(0.916549395346553,7.0344675949637,8.));
#1953=CARTESIAN_POINT('',(-47.0000006854534,21.5000003054738,8.));
#1954=CARTESIAN_POINT('',(-35.7792256450534,21.5000003054738,8.));
#1955=CARTESIAN_POINT('',(-47.0000006854534,12.8859839055152,8.));
#1956=CARTESIAN_POINT('',(-26.9477744245996,13.4905589443951,8.));
#1957=CARTESIAN_POINT('',(-23.1887179983097,13.4905589443951,8.));
#1958=CARTESIAN_POINT('',(-25.7531125146265,13.4905589443951,8.));
#1959=CARTESIAN_POINT('',(-26.9477744245996,11.1135085571824,8.));
#1960=CARTESIAN_POINT('',(-26.9477744245996,11.692738076073,8.));
#1961=CARTESIAN_POINT('',(-23.1887179983097,11.1135085571824,8.));
#1962=CARTESIAN_POINT('',(-23.8735843014816,11.1135085571824,8.));
#1963=CARTESIAN_POINT('',(-23.1887179983097,12.8812632696794,8.));
#1964=CARTESIAN_POINT('',(-39.0000005960464,11.0000001490116,8.));
#1965=CARTESIAN_POINT('',(-39.0000005960464,3.00000005960464,8.));
#1966=CARTESIAN_POINT('',(-39.0000005960464,11.6359838719876,8.));
#1967=CARTESIAN_POINT('',(-47.0000006854534,11.0000001490116,8.));
#1968=CARTESIAN_POINT('',(-35.7792256450534,11.0000001490116,8.));
#1969=CARTESIAN_POINT('',(-47.0000006854534,3.00000005960464,8.));
#1970=CARTESIAN_POINT('',(-47.0000006854534,7.63598382728414,8.));
#1971=CARTESIAN_POINT('',(-31.7792256003499,3.00000005960464,8.));
#1972=CARTESIAN_POINT('',(-28.6288661404092,16.2871667951953,8.));
#1973=CARTESIAN_POINT('',(-30.6064315377195,16.2871667951953,8.));
#1974=CARTESIAN_POINT('',(-28.6288661404092,14.2795671950795,8.));
#1975=CARTESIAN_POINT('Origin',(-28.6288661404092,16.2871667951953,9.));
#1976=CARTESIAN_POINT('',(-28.6288661404092,16.2871667951953,9.));
#1977=CARTESIAN_POINT('Origin',(-36.6544124707855,16.2871667951953,9.));
#1978=CARTESIAN_POINT('Origin',(-47.0000006854534,13.5000002160668,9.));
#1979=CARTESIAN_POINT('',(-47.0000006854534,21.5000003054738,9.));
#1980=CARTESIAN_POINT('Origin',(-47.0000006854534,21.5000003054738,9.));
#1981=CARTESIAN_POINT('Origin',(-38.5000005960464,11.6359838719876,9.5));
#1982=CARTESIAN_POINT('',(-39.0000005960464,11.0000001490116,9.));
#1983=CARTESIAN_POINT('',(-38.0000005960464,12.0000001490116,10.));
#1984=CARTESIAN_POINT('',(-39.0000005960464,3.00000005960464,9.));
#1985=CARTESIAN_POINT('',(-39.0000005960464,11.6359838719876,9.));
#1986=CARTESIAN_POINT('',(-38.0000005960464,2.00000005960465,10.));
#1987=CARTESIAN_POINT('Origin',(-35.7792256450534,11.5000001490116,9.5));
#1988=CARTESIAN_POINT('',(-47.0000006854534,11.0000001490116,9.));
#1989=CARTESIAN_POINT('',(-48.0000006854534,12.0000001490116,10.));
#1990=CARTESIAN_POINT('',(-35.7792256450534,11.0000001490116,9.));
#1991=CARTESIAN_POINT('Origin',(-47.5000006854534,7.63598382728414,9.5));
#1992=CARTESIAN_POINT('',(-47.0000006854534,3.00000005960464,9.));
#1993=CARTESIAN_POINT('',(-48.0000006854534,2.00000005960465,10.));
#1994=CARTESIAN_POINT('',(-47.0000006854534,7.63598382728414,9.));
#1995=CARTESIAN_POINT('Origin',(-31.7792256003499,2.50000005960465,9.5));
#1996=CARTESIAN_POINT('',(-31.7792256003499,3.00000005960464,9.));
#1997=CARTESIAN_POINT('Origin',(-39.0000005960464,3.00000005960464,9.));
#1998=CARTESIAN_POINT('',(-39.0000005960464,3.00000005960464,9.));
#1999=CARTESIAN_POINT('',(-47.0000006854534,3.00000005960464,9.));
#2000=CARTESIAN_POINT('Origin',(-39.0000005960464,11.0000001490116,9.));
#2001=CARTESIAN_POINT('',(-39.0000005960464,11.0000001490116,9.));
#2002=CARTESIAN_POINT('Origin',(-47.0000006854534,11.0000001490116,9.));
#2003=CARTESIAN_POINT('',(-47.0000006854534,11.0000001490116,9.));
#2004=CARTESIAN_POINT('Origin',(-47.0000006854534,3.00000005960464,9.));
#2005=CARTESIAN_POINT('Origin',(1.91654939534654,6.09999986365438,5.95999992065132));
#2006=CARTESIAN_POINT('',(1.91654939534654,6.09999986365438,5.95999992065132));
#2007=CARTESIAN_POINT('',(1.91654939534654,18.4690084139464,5.95999992065132));
#2008=CARTESIAN_POINT('',(1.91654939534656,3.94848372930904,5.95999992065132));
#2009=CARTESIAN_POINT('',(0.916549395346539,6.09999986365438,5.95999992065132));
#2010=CARTESIAN_POINT('',(1.91654939534654,6.09999986365438,5.95999992065132));
#2011=CARTESIAN_POINT('',(0.916549395346539,18.4690084139464,5.95999992065132));
#2012=CARTESIAN_POINT('',(0.916549395346558,3.94848372930904,5.95999992065132));
#2013=CARTESIAN_POINT('',(1.91654939534654,18.4690084139464,5.95999992065132));
#2014=CARTESIAN_POINT('Origin',(0.916549395346563,1.7969675949637,0.));
#2015=CARTESIAN_POINT('',(0.916549395346539,18.4690084139464,2.));
#2016=CARTESIAN_POINT('',(0.916549395346525,18.4690084139464,1.77499996032566));
#2017=CARTESIAN_POINT('',(0.916549395346539,6.09999986365438,2.));
#2018=CARTESIAN_POINT('',(0.916549395346553,6.09999986365438,1.77499996032566));
#2019=CARTESIAN_POINT('',(0.916549395346554,5.80591416881334,2.));
#2020=CARTESIAN_POINT('',(0.916549395346558,4.22289265515268,2.));
#2021=CARTESIAN_POINT('',(0.916549395346555,5.60591416881334,1.8));
#2022=CARTESIAN_POINT('Origin',(0.916549395346564,5.80591416881334,1.8));
#2023=CARTESIAN_POINT('',(0.916549395346556,5.60591416881334,1.));
#2024=CARTESIAN_POINT('',(0.916549395346555,5.60591416881334,0.));
#2025=CARTESIAN_POINT('',(0.916549395346553,7.0344675949637,1.));
#2026=CARTESIAN_POINT('',(0.916549395346516,22.7719675949636,1.));
#2027=CARTESIAN_POINT('',(0.916549395346516,22.7719675949636,5.));
#2028=CARTESIAN_POINT('',(0.916549395346527,18.9169133186742,1.));
#2029=CARTESIAN_POINT('',(0.916549395346553,7.0344675949637,1.));
#2030=CARTESIAN_POINT('',(0.916549395346524,18.9169133186742,1.8));
#2031=CARTESIAN_POINT('',(0.916549395346524,18.9169133186742,0.));
#2032=CARTESIAN_POINT('',(0.916549395346524,18.7169133186742,2.));
#2033=CARTESIAN_POINT('Origin',(0.916549395346562,18.7169133186742,1.8));
#2034=CARTESIAN_POINT('',(0.916549395346544,9.83548868355484,2.));
#2035=CARTESIAN_POINT('Origin',(0.916549395346539,12.2845041388004,2.75484200601752));
#2036=CARTESIAN_POINT('',(0.91654939534655,7.49172126186986,2.));
#2037=CARTESIAN_POINT('',(0.916549395346558,4.22289265515268,2.));
#2038=CARTESIAN_POINT('',(0.916549395346539,6.09999986365438,1.95968409138371));
#2039=CARTESIAN_POINT('',(0.916549395346539,6.09999986365438,1.95968409138371));
#2040=CARTESIAN_POINT('',(0.91654939534654,7.61214132232059,1.95968409138371));
#2041=CARTESIAN_POINT('',(0.916549395346539,18.4690084139464,1.95968409138371));
#2042=CARTESIAN_POINT('Origin',(0.916549395346562,7.49172126186986,1.8));
#2043=CARTESIAN_POINT('Origin',(1.91654939534654,18.4690084139464,3.54999992065132));
#2044=CARTESIAN_POINT('',(1.91654939534654,18.4690084139464,1.95968409138371));
#2045=CARTESIAN_POINT('',(1.91654939534653,18.4690084139464,1.77499996032566));
#2046=CARTESIAN_POINT('',(0.916549395346539,18.4690084139464,1.95968409138371));
#2047=CARTESIAN_POINT('',(0.916549395346539,18.4690084139464,3.54999992065132));
#2048=CARTESIAN_POINT('',(1.91654939534654,18.4690084139464,1.95968409138371));
#2049=CARTESIAN_POINT('Origin',(1.91654939534654,6.09999986365438,1.95968409138371));
#2050=CARTESIAN_POINT('',(1.91654939534654,6.09999986365438,1.95968409138371));
#2051=CARTESIAN_POINT('',(1.91654939534655,6.09999986365438,1.77499996032566));
#2052=CARTESIAN_POINT('',(1.91654939534654,6.09999986365438,1.95968409138371));
#2053=CARTESIAN_POINT('Origin',(1.91654939534654,18.4690084139464,1.95968409138371));
#2054=CARTESIAN_POINT('',(1.91654939534654,10.1329880044551,1.95968409138371));
#2055=CARTESIAN_POINT('',(0.916549395346538,16.9106861651669,1.95968409138371));
#2056=CARTESIAN_POINT('',(0.916549395346539,18.4690084139464,1.95968409138371));
#2057=CARTESIAN_POINT('',(0.916549395346544,10.1329880044551,1.95968409138371));
#2058=CARTESIAN_POINT('Origin',(0.916549395346539,12.2845041388004,2.75484200601752));
#2059=CARTESIAN_POINT('',(0.916549395346528,17.0311062256177,2.));
#2060=CARTESIAN_POINT('',(0.916549395346544,9.83548868355484,2.));
#2061=CARTESIAN_POINT('Origin',(0.916549395346564,17.0311062256177,1.8));
#2062=CARTESIAN_POINT('Origin',(0.916549395346563,1.7969675949637,0.));
#2063=CARTESIAN_POINT('',(0.916549395346529,16.8311062256177,1.8));
#2064=CARTESIAN_POINT('Origin',(0.916549395346564,17.0311062256177,1.8));
#2065=CARTESIAN_POINT('',(0.916549395346531,16.8311062256177,1.));
#2066=CARTESIAN_POINT('',(0.916549395346529,16.8311062256177,0.));
#2067=CARTESIAN_POINT('',(0.916549395346552,7.69172126186986,1.));
#2068=CARTESIAN_POINT('',(0.916549395346553,7.0344675949637,1.));
#2069=CARTESIAN_POINT('',(0.91654939534655,7.69172126186986,1.8));
#2070=CARTESIAN_POINT('',(0.91654939534655,7.69172126186986,0.));
#2071=CARTESIAN_POINT('Origin',(0.916549395346562,7.49172126186986,1.8));
#2072=CARTESIAN_POINT('Origin',(-11.3224127483183,18.7169133186742,1.8));
#2073=CARTESIAN_POINT('',(-50.9437027457581,18.9169133186742,1.8));
#2074=CARTESIAN_POINT('',(-50.9437027457581,18.7169133186742,2.));
#2075=CARTESIAN_POINT('Origin',(-50.9437027457581,18.7169133186742,1.8));
#2076=CARTESIAN_POINT('',(-11.3224127483183,18.7169133186742,2.));
#2077=CARTESIAN_POINT('',(-11.3224127483183,18.9169133186742,1.8));
#2078=CARTESIAN_POINT('Origin',(1.88468391749501,18.9169133186742,0.));
#2079=CARTESIAN_POINT('',(-50.9437027457581,18.9169133186742,1.));
#2080=CARTESIAN_POINT('',(-11.3368833435792,18.9169133186742,1.));
#2081=CARTESIAN_POINT('',(-50.9437027457581,18.9169133186742,0.));
#2082=CARTESIAN_POINT('Origin',(-37.7366060799449,17.0311062256177,1.8));
#2083=CARTESIAN_POINT('',(-50.9437027457581,17.0311062256177,2.));
#2084=CARTESIAN_POINT('',(-50.9437027457581,16.8311062256177,1.8));
#2085=CARTESIAN_POINT('Origin',(-50.9437027457581,17.0311062256177,1.8));
#2086=CARTESIAN_POINT('',(-37.7366060799449,16.8311062256177,1.8));
#2087=CARTESIAN_POINT('',(-37.7366060799449,17.0311062256177,2.));
#2088=CARTESIAN_POINT('Origin',(-24.5295094141316,17.8740097721459,2.));
#2089=CARTESIAN_POINT('',(-50.9437027457581,18.9169133186742,2.));
#2090=CARTESIAN_POINT('Origin',(-11.3224127483183,7.49172126186986,1.8));
#2091=CARTESIAN_POINT('',(-50.9437027457581,7.69172126186986,1.8));
#2092=CARTESIAN_POINT('',(-50.9437027457581,7.49172126186986,2.));
#2093=CARTESIAN_POINT('Origin',(-50.9437027457581,7.49172126186986,1.8));
#2094=CARTESIAN_POINT('',(-11.3224127483183,7.49172126186986,2.));
#2095=CARTESIAN_POINT('',(-11.3224127483183,7.69172126186986,1.8));
#2096=CARTESIAN_POINT('Origin',(-24.5295094141316,6.6488177153416,2.));
#2097=CARTESIAN_POINT('',(-50.9437027457581,5.80591416881334,2.));
#2098=CARTESIAN_POINT('',(-50.9437027457581,7.69172126186986,2.));
#2099=CARTESIAN_POINT('',(-37.7366060799449,5.80591416881334,2.));
#2100=CARTESIAN_POINT('Origin',(-50.9437027457581,7.69172126186986,0.));
#2101=CARTESIAN_POINT('',(-50.9437027457581,7.69172126186986,1.));
#2102=CARTESIAN_POINT('',(-50.9437027457581,7.69172126186986,0.));
#2103=CARTESIAN_POINT('',(-50.9437027457581,5.60591416881334,1.));
#2104=CARTESIAN_POINT('',(-50.9437027457581,9.98184442841676,1.));
#2105=CARTESIAN_POINT('',(-50.9437027457581,5.60591416881334,1.8));
#2106=CARTESIAN_POINT('',(-50.9437027457581,5.60591416881334,0.));
#2107=CARTESIAN_POINT('Origin',(-50.9437027457581,5.80591416881334,1.8));
#2108=CARTESIAN_POINT('Origin',(-37.7366060799449,5.80591416881334,1.8));
#2109=CARTESIAN_POINT('',(-37.7366060799449,5.60591416881334,1.8));
#2110=CARTESIAN_POINT('Origin',(-50.9437027457581,5.60591416881334,0.));
#2111=CARTESIAN_POINT('',(-37.7510766752058,5.60591416881334,1.));
#2112=CARTESIAN_POINT('Origin',(-23.1887179983097,13.4905589443951,8.));
#2113=CARTESIAN_POINT('',(-23.1887179983097,11.1135085571824,8.));
#2114=CARTESIAN_POINT('',(-23.1887179983097,13.4905589443951,8.));
#2115=CARTESIAN_POINT('Origin',(-23.1887179983097,11.1135085571824,8.));
#2116=CARTESIAN_POINT('',(-26.9477744245996,11.1135085571824,8.));
#2117=CARTESIAN_POINT('Origin',(-26.9477744245996,11.1135085571824,8.));
#2118=CARTESIAN_POINT('',(-26.9477744245996,13.4905589443951,8.));
#2119=CARTESIAN_POINT('Origin',(-26.9477744245996,13.4905589443951,8.));
#2120=CARTESIAN_POINT('Origin',(-24.5584506046534,12.2719675949636,-1.));
#2121=CARTESIAN_POINT('',(1.91654939534652,23.7719675949636,-1.));
#2122=CARTESIAN_POINT('Origin',(1.88468391749501,7.69172126186986,0.));
#2123=CARTESIAN_POINT('',(-11.3368833435792,7.69172126186986,1.));
#2124=CARTESIAN_POINT('Origin',(-50.9437027457581,16.8311062256177,0.));
#2125=CARTESIAN_POINT('',(-50.9437027457581,16.8311062256177,1.));
#2126=CARTESIAN_POINT('',(-50.9437027457581,16.8311062256177,0.));
#2127=CARTESIAN_POINT('',(-37.7510766752058,16.8311062256177,1.));
#2128=CARTESIAN_POINT('Origin',(-50.9437027457581,18.9169133186742,0.));
#2129=CARTESIAN_POINT('',(-50.9437027457581,15.5944404568189,1.));
#2130=CARTESIAN_POINT('Origin',(-24.5584506046534,12.2719675949636,1.));
#2131=CARTESIAN_POINT('',(-12.3209506046534,22.7719675949636,1.));
#2132=CARTESIAN_POINT('Origin',(-0.0834506046534856,22.7719675949636,0.));
#2133=CARTESIAN_POINT('Origin',(1.91654939534656,1.7969675949637,0.));
#2134=UNCERTAINTY_MEASURE_WITH_UNIT(LENGTH_MEASURE(0.01),#2138,
'DISTANCE_ACCURACY_VALUE',
'Maximum model space distance between geometric entities at asserted c
onnectivities');
#2135=UNCERTAINTY_MEASURE_WITH_UNIT(LENGTH_MEASURE(0.01),#2138,
'DISTANCE_ACCURACY_VALUE',
'Maximum model space distance between geometric entities at asserted c
onnectivities');
#2136=(
GEOMETRIC_REPRESENTATION_CONTEXT(3)
GLOBAL_UNCERTAINTY_ASSIGNED_CONTEXT((#2134))
GLOBAL_UNIT_ASSIGNED_CONTEXT((#2138,#2140,#2141))
REPRESENTATION_CONTEXT('','3D')
);
#2137=(
GEOMETRIC_REPRESENTATION_CONTEXT(3)
GLOBAL_UNCERTAINTY_ASSIGNED_CONTEXT((#2135))
GLOBAL_UNIT_ASSIGNED_CONTEXT((#2138,#2140,#2141))
REPRESENTATION_CONTEXT('','3D')
);
#2138=(
LENGTH_UNIT()
NAMED_UNIT(*)
SI_UNIT(.MILLI.,.METRE.)
);
#2139=(
LENGTH_UNIT()
NAMED_UNIT(*)
SI_UNIT($,.METRE.)
);
#2140=(
NAMED_UNIT(*)
PLANE_ANGLE_UNIT()
SI_UNIT($,.RADIAN.)
);
#2141=(
NAMED_UNIT(*)
SI_UNIT($,.STERADIAN.)
SOLID_ANGLE_UNIT()
);
#2142=SHAPE_DEFINITION_REPRESENTATION(#2143,#2144);
#2143=PRODUCT_DEFINITION_SHAPE('',$,#2146);
#2144=SHAPE_REPRESENTATION('',(#1352),#2136);
#2145=PRODUCT_DEFINITION_CONTEXT('part definition',#2150,'design');
#2146=PRODUCT_DEFINITION('2026-08-27-17-13-40-889','case',#2147,#2145);
#2147=PRODUCT_DEFINITION_FORMATION('',$,#2152);
#2148=PRODUCT_RELATED_PRODUCT_CATEGORY('case','case',(#2152));
#2149=APPLICATION_PROTOCOL_DEFINITION('international standard',
'automotive_design',2009,#2150);
#2150=APPLICATION_CONTEXT(
'Core Data for Automotive Mechanical Design Process');
#2151=PRODUCT_CONTEXT('part definition',#2150,'mechanical');
#2152=PRODUCT('2026-08-27-17-13-40-889','case',$,(#2151));
#2153=PRESENTATION_STYLE_ASSIGNMENT((#2154));
#2154=SURFACE_STYLE_USAGE(.BOTH.,#2155);
#2155=SURFACE_SIDE_STYLE('',(#2156));
#2156=SURFACE_STYLE_FILL_AREA(#2157);
#2157=FILL_AREA_STYLE('Steel - Satin',(#2158));
#2158=FILL_AREA_STYLE_COLOUR('Steel - Satin',#2159);
#2159=COLOUR_RGB('Steel - Satin',0.627450980392157,0.627450980392157,0.627450980392157);
ENDSEC;
END-ISO-10303-21;
